<?xml version="1.0" encoding="UTF-8"?>
<!--Generator: Apple Native CoreSVG 175.5-->
<!DOCTYPE svg
PUBLIC "-//W3C//DTD SVG 1.1//EN"
       "http://www.w3.org/Graphics/SVG/1.1/DTD/svg11.dtd">
<svg version="1.1" xmlns="http://www.w3.org/2000/svg" xmlns:xlink="http://www.w3.org/1999/xlink" width="3300" height="2200">
 <!--glyph: "uni1013A6.medium", point size: 100.0, font version: "18.0d12e2", template writer version: "101"-->
 <g id="Notes">
  <rect height="2200" id="artboard" style="fill:white;opacity:1" width="3300" x="0" y="0"/>
  <line style="fill:none;stroke:black;opacity:1;stroke-width:0.5;" x1="263" x2="3036" y1="292" y2="292"/>
  <text style="stroke:none;fill:black;font-family:sans-serif;font-size:13;font-weight:bold;" transform="matrix(1 0 0 1 263 322)">Weight/Scale Variations</text>
  <text style="stroke:none;fill:black;font-family:sans-serif;font-size:13;text-anchor:middle;" transform="matrix(1 0 0 1 559.711 322)">Ultralight</text>
  <text style="stroke:none;fill:black;font-family:sans-serif;font-size:13;text-anchor:middle;" transform="matrix(1 0 0 1 856.422 322)">Thin</text>
  <text style="stroke:none;fill:black;font-family:sans-serif;font-size:13;text-anchor:middle;" transform="matrix(1 0 0 1 1153.13 322)">Light</text>
  <text style="stroke:none;fill:black;font-family:sans-serif;font-size:13;text-anchor:middle;" transform="matrix(1 0 0 1 1449.84 322)">Regular</text>
  <text style="stroke:none;fill:black;font-family:sans-serif;font-size:13;text-anchor:middle;" transform="matrix(1 0 0 1 1746.56 322)">Medium</text>
  <text style="stroke:none;fill:black;font-family:sans-serif;font-size:13;text-anchor:middle;" transform="matrix(1 0 0 1 2043.27 322)">Semibold</text>
  <text style="stroke:none;fill:black;font-family:sans-serif;font-size:13;text-anchor:middle;" transform="matrix(1 0 0 1 2339.98 322)">Bold</text>
  <text style="stroke:none;fill:black;font-family:sans-serif;font-size:13;text-anchor:middle;" transform="matrix(1 0 0 1 2636.69 322)">Heavy</text>
  <text style="stroke:none;fill:black;font-family:sans-serif;font-size:13;text-anchor:middle;" transform="matrix(1 0 0 1 2933.4 322)">Black</text>
  <line style="fill:none;stroke:black;opacity:1;stroke-width:0.5;" x1="263" x2="3036" y1="1903" y2="1903"/>
  <g transform="matrix(1 0 0 1 263 1933)">
   <path d="M9.24805 0.830078C13.5547 0.830078 17.1387-2.74414 17.1387-7.05078C17.1387-11.3574 13.5449-14.9316 9.23828-14.9316C4.94141-14.9316 1.36719-11.3574 1.36719-7.05078C1.36719-2.74414 4.95117 0.830078 9.24805 0.830078ZM9.24805-0.654297C5.70312-0.654297 2.87109-3.49609 2.87109-7.05078C2.87109-10.6055 5.69336-13.4473 9.23828-13.4473C12.793-13.4473 15.6445-10.6055 15.6445-7.05078C15.6445-3.49609 12.8027-0.654297 9.24805-0.654297ZM5.6543-7.05078C5.6543-6.62109 5.95703-6.32812 6.40625-6.32812L8.50586-6.32812L8.50586-4.20898C8.50586-3.76953 8.79883-3.4668 9.22852-3.4668C9.67773-3.4668 9.9707-3.76953 9.9707-4.20898L9.9707-6.32812L12.0898-6.32812C12.5293-6.32812 12.832-6.62109 12.832-7.05078C12.832-7.49023 12.5293-7.79297 12.0898-7.79297L9.9707-7.79297L9.9707-9.90234C9.9707-10.3516 9.67773-10.6543 9.22852-10.6543C8.79883-10.6543 8.50586-10.3516 8.50586-9.90234L8.50586-7.79297L6.40625-7.79297C5.95703-7.79297 5.6543-7.49023 5.6543-7.05078Z"/>
  </g>
  <g transform="matrix(1 0 0 1 281.867 1933)">
   <path d="M11.709 2.91016C17.1582 2.91016 21.6699-1.61133 21.6699-7.05078C21.6699-12.5 17.1484-17.0117 11.6992-17.0117C6.25977-17.0117 1.74805-12.5 1.74805-7.05078C1.74805-1.61133 6.26953 2.91016 11.709 2.91016ZM11.709 1.25C7.09961 1.25 3.41797-2.44141 3.41797-7.05078C3.41797-11.6602 7.08984-15.3516 11.6992-15.3516C16.3086-15.3516 20.0098-11.6602 20.0098-7.05078C20.0098-2.44141 16.3184 1.25 11.709 1.25ZM7.17773-7.05078C7.17773-6.57227 7.50977-6.25 8.00781-6.25L10.8789-6.25L10.8789-3.36914C10.8789-2.88086 11.2109-2.53906 11.6895-2.53906C12.1777-2.53906 12.5195-2.87109 12.5195-3.36914L12.5195-6.25L15.4004-6.25C15.8887-6.25 16.2305-6.57227 16.2305-7.05078C16.2305-7.53906 15.8887-7.88086 15.4004-7.88086L12.5195-7.88086L12.5195-10.752C12.5195-11.25 12.1777-11.5918 11.6895-11.5918C11.2109-11.5918 10.8789-11.25 10.8789-10.752L10.8789-7.88086L8.00781-7.88086C7.50977-7.88086 7.17773-7.53906 7.17773-7.05078Z"/>
  </g>
  <g transform="matrix(1 0 0 1 305.646 1933)">
   <path d="M14.9707 5.66406C21.9336 5.66406 27.6953-0.0976562 27.6953-7.05078C27.6953-14.0137 21.9238-19.7754 14.9609-19.7754C8.00781-19.7754 2.25586-14.0137 2.25586-7.05078C2.25586-0.0976562 8.01758 5.66406 14.9707 5.66406ZM14.9707 3.84766C8.93555 3.84766 4.08203-1.01562 4.08203-7.05078C4.08203-13.0957 8.92578-17.9492 14.9609-17.9492C21.0059-17.9492 25.8691-13.0957 25.8691-7.05078C25.8691-1.01562 21.0156 3.84766 14.9707 3.84766ZM9.19922-7.05078C9.19922-6.5332 9.57031-6.17188 10.1172-6.17188L14.0625-6.17188L14.0625-2.2168C14.0625-1.67969 14.4336-1.29883 14.9512-1.29883C15.4883-1.29883 15.8594-1.66992 15.8594-2.2168L15.8594-6.17188L19.8145-6.17188C20.3516-6.17188 20.7324-6.5332 20.7324-7.05078C20.7324-7.59766 20.3613-7.96875 19.8145-7.96875L15.8594-7.96875L15.8594-11.9141C15.8594-12.4609 15.4883-12.8418 14.9512-12.8418C14.4336-12.8418 14.0625-12.4609 14.0625-11.9141L14.0625-7.96875L10.1172-7.96875C9.57031-7.96875 9.19922-7.59766 9.19922-7.05078Z"/>
  </g>
  <text style="stroke:none;fill:black;font-family:sans-serif;font-size:13;font-weight:bold;" transform="matrix(1 0 0 1 263 1953)">Design Variations</text>
  <text style="stroke:none;fill:black;font-family:sans-serif;font-size:13;" transform="matrix(1 0 0 1 263 1971)">Symbols are supported in up to nine weights and three scales.</text>
  <text style="stroke:none;fill:black;font-family:sans-serif;font-size:13;" transform="matrix(1 0 0 1 263 1989)">For optimal layout with text and other symbols, vertically align</text>
  <text style="stroke:none;fill:black;font-family:sans-serif;font-size:13;" transform="matrix(1 0 0 1 263 2007)">symbols with the adjacent text.</text>
  <line style="fill:none;stroke:#00AEEF;stroke-width:0.5;opacity:1.0;" x1="776" x2="776" y1="1919" y2="1933"/>
  <g transform="matrix(1 0 0 1 776 1933)">
   <path d="M3.31055 0.15625C3.82812 0.15625 4.08203-0.0390625 4.26758-0.585938L5.52734-4.0332L11.2891-4.0332L12.5488-0.585938C12.7344-0.0390625 12.9883 0.15625 13.4961 0.15625C14.0137 0.15625 14.3457-0.15625 14.3457-0.644531C14.3457-0.810547 14.3164-0.966797 14.2383-1.17188L9.6582-13.3691C9.43359-13.9648 9.0332-14.2676 8.4082-14.2676C7.80273-14.2676 7.39258-13.9746 7.17773-13.3789L2.59766-1.16211C2.51953-0.957031 2.49023-0.800781 2.49023-0.634766C2.49023-0.146484 2.80273 0.15625 3.31055 0.15625ZM6.00586-5.51758L8.37891-12.0898L8.42773-12.0898L10.8008-5.51758Z"/>
  </g>
  <line style="fill:none;stroke:#00AEEF;stroke-width:0.5;opacity:1.0;" x1="793.197" x2="793.197" y1="1919" y2="1933"/>
  <text style="stroke:none;fill:black;font-family:sans-serif;font-size:13;font-weight:bold;" transform="matrix(1 0 0 1 776 1953)">Margins</text>
  <text style="stroke:none;fill:black;font-family:sans-serif;font-size:13;" transform="matrix(1 0 0 1 776 1971)">Leading and trailing margins on the left and right side of each symbol</text>
  <text style="stroke:none;fill:black;font-family:sans-serif;font-size:13;" transform="matrix(1 0 0 1 776 1989)">can be adjusted by modifying the x-location of the margin guidelines.</text>
  <text style="stroke:none;fill:black;font-family:sans-serif;font-size:13;" transform="matrix(1 0 0 1 776 2007)">Modifications are automatically applied proportionally to all</text>
  <text style="stroke:none;fill:black;font-family:sans-serif;font-size:13;" transform="matrix(1 0 0 1 776 2025)">scales and weights.</text>
  <g transform="matrix(1 0 0 1 1289 1933)">
   <path d="M2.8418 1.86523L4.54102 3.57422C5.40039 4.44336 6.38672 4.38477 7.31445 3.35938L18.0078-8.42773L17.041-9.4043L6.42578 2.27539C6.07422 2.67578 5.74219 2.77344 5.27344 2.30469L4.10156 1.14258C3.63281 0.683594 3.74023 0.341797 4.14062-0.0195312L15.6152-10.8203L14.6387-11.7871L3.04688-0.898438C2.06055 0.0195312 1.98242 0.996094 2.8418 1.86523ZM9.25781-16.3281C8.83789-15.918 8.80859-15.3418 9.04297-14.9512C9.27734-14.5898 9.73633-14.3555 10.3809-14.5215C11.8457-14.8633 13.3691-14.9219 14.7949-13.9844L14.209-12.5293C13.8672-11.6992 14.043-11.1133 14.5801-10.5664L16.875-8.25195C17.3633-7.76367 17.7734-7.74414 18.3398-7.8418L19.4043-8.03711L20.0684-7.36328L20.0293-6.80664C19.9902-6.30859 20.1172-5.92773 20.6055-5.44922L21.3672-4.70703C21.8457-4.22852 22.4609-4.19922 22.9297-4.66797L25.8398-7.58789C26.3086-8.05664 26.2891-8.65234 25.8105-9.13086L25.0391-9.89258C24.5605-10.3711 24.1895-10.5273 23.7109-10.4883L23.1348-10.4395L22.4902-11.0742L22.7344-12.1973C22.8613-12.7637 22.7051-13.2031 22.1191-13.7891L19.9219-15.9766C16.582-19.2969 12.1484-19.2188 9.25781-16.3281ZM10.752-15.957C13.1836-17.7344 16.4746-17.4316 18.7012-15.2051L21.1328-12.793C21.3672-12.5586 21.4062-12.373 21.3379-12.0312L21.0156-10.5469L22.5195-9.0625L23.5059-9.12109C23.7598-9.13086 23.8379-9.11133 24.0332-8.91602L24.6094-8.33984L22.168-5.89844L21.5918-6.47461C21.3965-6.66992 21.3672-6.74805 21.377-7.01172L21.4453-7.98828L19.9512-9.47266L18.4277-9.21875C18.1055-9.15039 17.959-9.17969 17.7148-9.41406L15.7129-11.416C15.459-11.6504 15.4297-11.8164 15.5859-12.1875L16.4648-14.2773C14.9023-15.7324 12.8711-16.3574 10.8398-15.7617C10.6836-15.7227 10.625-15.8496 10.752-15.957Z"/>
  </g>
  <text style="stroke:none;fill:black;font-family:sans-serif;font-size:13;font-weight:bold;" transform="matrix(1 0 0 1 1289 1953)">Exporting</text>
  <text style="stroke:none;fill:black;font-family:sans-serif;font-size:13;" transform="matrix(1 0 0 1 1289 1971)">Symbols should be outlined when exporting to ensure the</text>
  <text style="stroke:none;fill:black;font-family:sans-serif;font-size:13;" transform="matrix(1 0 0 1 1289 1989)">design is preserved when submitting to Xcode.</text>
  <text id="template-version" style="stroke:none;fill:black;font-family:sans-serif;font-size:13;text-anchor:end;" transform="matrix(1 0 0 1 3036 1933)">Template v.4.0</text>
  <text style="stroke:none;fill:black;font-family:sans-serif;font-size:13;text-anchor:end;" transform="matrix(1 0 0 1 3036 1951)">Requires Xcode 14 or greater</text>
  <text id="descriptive-name" style="stroke:none;fill:black;font-family:sans-serif;font-size:13;text-anchor:end;" transform="matrix(1 0 0 1 3036 1969)">Generated from lightbulb.led</text>
  <text style="stroke:none;fill:black;font-family:sans-serif;font-size:13;text-anchor:end;" transform="matrix(1 0 0 1 3036 1987)">Typeset at 100 points</text>
  <text style="stroke:none;fill:black;font-family:sans-serif;font-size:13;" transform="matrix(1 0 0 1 263 726)">Small</text>
  <text style="stroke:none;fill:black;font-family:sans-serif;font-size:13;" transform="matrix(1 0 0 1 263 1156)">Medium</text>
  <text style="stroke:none;fill:black;font-family:sans-serif;font-size:13;" transform="matrix(1 0 0 1 263 1586)">Large</text>
 </g>
 <g id="Guides">
  <g id="H-reference" style="fill:#27AAE1;stroke:none;" transform="matrix(1 0 0 1 339 696)">
   <path d="M0.993654 0L3.63775 0L29.3281-67.1323L30.0303-67.1323L30.0303-70.459L28.1226-70.459ZM11.6885-24.4799L46.9815-24.4799L46.2315-26.7285L12.4385-26.7285ZM55.1196 0L57.7637 0L30.6382-70.459L29.4326-70.459L29.4326-67.1323Z"/>
  </g>
  <line id="Baseline-S" style="fill:none;stroke:#27AAE1;opacity:1;stroke-width:0.5;" x1="263" x2="3036" y1="696" y2="696"/>
  <line id="Capline-S" style="fill:none;stroke:#27AAE1;opacity:1;stroke-width:0.5;" x1="263" x2="3036" y1="625.541" y2="625.541"/>
  <g id="H-reference" style="fill:#27AAE1;stroke:none;" transform="matrix(1 0 0 1 339 1126)">
   <path d="M0.993654 0L3.63775 0L29.3281-67.1323L30.0303-67.1323L30.0303-70.459L28.1226-70.459ZM11.6885-24.4799L46.9815-24.4799L46.2315-26.7285L12.4385-26.7285ZM55.1196 0L57.7637 0L30.6382-70.459L29.4326-70.459L29.4326-67.1323Z"/>
  </g>
  <line id="Baseline-M" style="fill:none;stroke:#27AAE1;opacity:1;stroke-width:0.5;" x1="263" x2="3036" y1="1126" y2="1126"/>
  <line id="Capline-M" style="fill:none;stroke:#27AAE1;opacity:1;stroke-width:0.5;" x1="263" x2="3036" y1="1055.54" y2="1055.54"/>
  <g id="H-reference" style="fill:#27AAE1;stroke:none;" transform="matrix(1 0 0 1 339 1556)">
   <path d="M0.993654 0L3.63775 0L29.3281-67.1323L30.0303-67.1323L30.0303-70.459L28.1226-70.459ZM11.6885-24.4799L46.9815-24.4799L46.2315-26.7285L12.4385-26.7285ZM55.1196 0L57.7637 0L30.6382-70.459L29.4326-70.459L29.4326-67.1323Z"/>
  </g>
  <line id="Baseline-L" style="fill:none;stroke:#27AAE1;opacity:1;stroke-width:0.5;" x1="263" x2="3036" y1="1556" y2="1556"/>
  <line id="Capline-L" style="fill:none;stroke:#27AAE1;opacity:1;stroke-width:0.5;" x1="263" x2="3036" y1="1485.54" y2="1485.54"/>
  <line id="left-margin-Regular-M" style="fill:none;stroke:#00AEEF;stroke-width:0.5;opacity:1.0;" x1="1404.71" x2="1404.71" y1="1030.79" y2="1150.12"/>
  <line id="right-margin-Regular-M" style="fill:none;stroke:#00AEEF;stroke-width:0.5;opacity:1.0;" x1="1494.98" x2="1494.98" y1="1030.79" y2="1150.12"/>
 </g>
 <g id="Symbols">
  <g id="Black-L" transform="matrix(1 0 0 1 2871.94 1556)">
   <path d="M27.5003-48.5109L95.3745-48.5109L95.3745-62.6536L27.5003-62.6536ZM16.084-73.4325C16.084-50.2183 29.3663-40.765 32.408-2.87494C32.8233 2.44841 36.3431 5.60221 41.636 5.60221L81.218 5.60221C86.5109 5.60221 90.0319 2.44841 90.4472-2.87494C93.4889-40.765 106.828-50.1599 106.828-73.3741C106.828-97.5908 86.2783-115.46 61.427-115.46C36.5769-115.46 16.084-97.6492 16.084-73.4325ZM32.3148-73.4325C32.3148-88.798 45.7338-99.229 61.427-99.229C77.1202-99.1706 90.5976-88.798 90.5976-73.4325C90.5976-59.1837 80.1941-53.9888 75.5175-10.5494L47.3378-10.5494C42.6599-53.9888 32.3148-59.1837 32.3148-73.4325ZM40.237 23.7132L82.5974 23.7132C85.5941 23.7132 87.9158 21.1954 87.9158 18.452C87.9158 15.6305 85.5941 13.192 82.5974 13.192L40.237 13.192C37.2599 13.192 34.9174 15.6305 34.9174 18.452C34.9174 21.1954 37.2599 23.7132 40.237 23.7132ZM61.427 43.9529C72.1107 43.9529 79.8872 38.9024 80.623 31.2821L41.9194 31.2821C42.6343 38.9024 50.7225 43.9529 61.427 43.9529Z"/>
  </g>
  <g id="Heavy-L" transform="matrix(1 0 0 1 2576.05 1556)">
   <path d="M27.0968-48.9468L94.1748-48.9468L94.1748-61.5916L27.0968-61.5916ZM16.084-73.014C16.084-49.6441 29.6436-40.9852 32.9025-2.05164C33.272 2.54718 36.2509 5.27969 40.869 5.27969L80.3724 5.27969C84.9905 5.27969 87.975 2.54718 88.3445-2.05164C91.6034-40.9852 105.202-49.5995 105.202-72.9694C105.202-96.5496 85.1405-114.235 60.6207-114.235C36.1065-114.235 16.084-96.5942 16.084-73.014ZM30.5907-73.014C30.5907-88.7904 44.4002-99.7278 60.6207-99.7278C76.8412-99.6832 90.6953-88.7904 90.6953-73.014C90.6953-57.8488 79.887-52.8003 75.0032-9.15226L46.2438-9.15226C41.3544-52.8003 30.5907-57.8488 30.5907-73.014ZM39.7567 22.2645L81.4602 22.2645C84.2247 22.2645 86.3594 19.9657 86.3594 17.4042C86.3594 14.7736 84.2247 12.5496 81.4602 12.5496L39.7567 12.5496C37.0167 12.5496 34.8518 14.7736 34.8518 17.4042C34.8518 19.9657 37.0167 22.2645 39.7567 22.2645ZM60.6207 41.9896C71.0844 41.9896 78.9198 37.0252 79.6054 29.5042L41.3883 29.5042C42.0437 37.0252 50.1268 41.9896 60.6207 41.9896Z"/>
  </g>
  <g id="Bold-L" transform="matrix(1 0 0 1 2280.35 1556)">
   <path d="M26.4259-49.5816L92.8407-49.5816L92.8407-60.3446L26.4259-60.3446ZM16.084-72.5513C16.084-49.1383 29.9297-41.3064 33.4128-1.07446C33.7284 2.69246 36.0835 4.93229 39.9386 4.93229L79.2901 4.93229C83.1452 4.93229 85.5135 2.69246 85.8291-1.07446C89.3122-41.3064 103.174-49.1091 103.174-72.5221C103.174-95.2886 83.7044-112.773 59.6143-112.773C35.5375-112.773 16.084-95.3178 16.084-72.5513ZM28.4025-72.5513C28.4025-88.8274 42.7184-100.454 59.6143-100.454C76.5103-100.425 90.8554-88.8274 90.8554-72.5513C90.8554-56.3234 79.5327-51.3102 74.4921-7.31899L44.7498-7.31899C39.696-51.3102 28.4025-56.3234 28.4025-72.5513ZM39.1873 20.5262L80.0167 20.5262C82.4893 20.5262 84.3935 18.4964 84.3935 16.1653C84.3935 13.7803 82.4893 11.8177 80.0167 11.8177L39.1873 11.8177C36.7394 11.8177 34.7972 13.7803 34.7972 16.1653C34.7972 18.4964 36.7394 20.5262 39.1873 20.5262ZM59.6143 39.6061C69.8239 39.6061 77.669 34.7567 78.293 27.3735L40.7649 27.3735C41.351 34.7567 49.3668 39.6061 59.6143 39.6061Z"/>
  </g>
  <g id="Semibold-L" transform="matrix(1 0 0 1 1984.34 1556)">
   <path d="M25.9634-50.0192L91.921-50.0192L91.921-59.485L25.9634-59.485ZM16.084-72.2322C16.084-48.7896 30.1269-41.5278 33.7646-0.400792C34.0431 2.79262 35.9681 4.6928 39.2972 4.6928L78.5439 4.6928C81.873 4.6928 83.8165 2.79262 84.095-0.400792C87.7327-41.5278 101.776-48.771 101.776-72.2137C101.776-94.4192 82.7144-111.765 58.9206-111.765C35.1452-111.765 16.084-94.4378 16.084-72.2322ZM26.8939-72.2322C26.8939-88.8529 41.5589-100.955 58.9206-100.955C76.2822-100.937 90.9658-88.8529 90.9658-72.2322C90.9658-55.2718 79.2885-50.2829 74.1398-6.05515L43.7198-6.05515C38.5526-50.2829 26.8939-55.2718 26.8939-72.2322ZM38.7947 19.3278L79.0215 19.3278C81.293 19.3278 83.0382 17.4834 83.0382 15.3112C83.0382 13.0955 81.293 11.313 79.0215 11.313L38.7947 11.313C36.5482 11.313 34.7595 13.0955 34.7595 15.3112C34.7595 17.4834 36.5482 19.3278 38.7947 19.3278ZM58.9206 37.9629C68.9549 37.9629 76.8066 33.1928 77.3883 25.9047L40.3351 25.9047C40.8734 33.1928 48.8428 37.9629 58.9206 37.9629Z"/>
  </g>
  <g id="Medium-L" transform="matrix(1 0 0 1 1688.16 1556)">
   <path d="M25.6128-50.3511L91.2237-50.3511L91.2237-58.8332L25.6128-58.8332ZM16.084-71.9903C16.084-48.5251 30.2764-41.6957 34.0314 0.11001C34.2817 2.86856 35.8806 4.5112 38.8109 4.5112L77.9782 4.5112C80.9084 4.5112 82.5298 2.86856 82.7801 0.11001C86.535-41.6957 100.716-48.5146 100.716-71.9798C100.716-93.76 81.9638-111.001 58.3945-111.001C34.8477-111.001 16.084-93.7705 16.084-71.9903ZM25.75-71.9903C25.75-88.8722 40.6798-101.335 58.3945-101.335C76.1092-101.325 91.0495-88.8722 91.0495-71.9903C91.0495-54.4745 79.1033-49.504 73.8727-5.09684L42.9388-5.09684C37.6857-49.504 25.75-54.4745 25.75-71.9903ZM38.4971 18.4191L78.267 18.4191C80.3858 18.4191 82.0106 16.7154 82.0106 14.6635C82.0106 12.5762 80.3858 10.9304 78.267 10.9304L38.4971 10.9304C36.4032 10.9304 34.731 12.5762 34.731 14.6635C34.731 16.7154 36.4032 18.4191 38.4971 18.4191ZM58.3945 36.717C68.296 36.717 76.1528 32.007 76.7023 24.7909L40.0091 24.7909C40.5113 32.007 48.4455 36.717 58.3945 36.717Z"/>
  </g>
  <g id="Regular-L" transform="matrix(1 0 0 1 1392.14 1556)">
   <path d="M25.1553-50.7839L90.3141-50.7839L90.3141-57.983L25.1553-57.983ZM16.084-71.6748C16.084-48.1802 30.4715-41.9147 34.3793 0.776273C34.5929 2.96762 35.7665 4.27434 38.1765 4.27434L77.2402 4.27434C79.6502 4.27434 80.8514 2.96762 81.065 0.776273C84.9729-41.9147 99.3327-48.1802 99.3327-71.6748C99.3327-92.9002 80.9846-110.005 57.7084-110.005C34.4597-110.005 16.084-92.9002 16.084-71.6748ZM24.258-71.6748C24.258-88.8974 39.5331-101.831 57.7084-101.831C75.8836-101.831 91.1587-88.8974 91.1587-71.6748C91.1587-53.4344 78.8617-48.488 73.5242-3.84689L41.9202-3.84689C36.555-48.488 24.258-53.4344 24.258-71.6748ZM38.1088 17.2339L77.2828 17.2339C79.2026 17.2339 80.6702 15.7136 80.6702 13.8188C80.6702 11.8989 79.2026 10.4314 77.2828 10.4314L38.1088 10.4314C36.2141 10.4314 34.6937 11.8989 34.6937 13.8188C34.6937 15.7136 36.2141 17.2339 38.1088 17.2339ZM57.7084 35.0918C67.4366 35.0918 75.2999 30.4602 75.8075 23.3382L39.5841 23.3382C40.0389 30.4602 47.9273 35.0918 57.7084 35.0918Z"/>
  </g>
  <g id="Light-L" transform="matrix(1 0 0 1 1096.17 1556)">
   <path d="M23.5904-51.8336L90.3714-51.8336L90.3714-57.5632L23.5904-57.5632ZM16.084-71.713C16.084-49.1536 30.2997-42.4491 34.074 1.17706C34.2685 3.21573 35.3084 4.36977 37.6612 4.36977L76.2668 4.36977C78.6196 4.36977 79.7063 3.21573 79.9008 1.17706C83.6751-42.4491 97.8441-49.1536 97.8441-71.713C97.8441-92.2131 79.8204-109.356 56.964-109.356C34.1544-109.356 16.084-92.2131 16.084-71.713ZM22.4067-71.713C22.4067-89.2219 38.178-103.033 56.964-103.033C75.7501-103.033 91.5213-89.2219 91.5213-71.713C91.5213-53.2054 78.7854-47.3429 73.9823-1.91927L39.9925-1.91927C35.1427-47.3429 22.4067-53.2054 22.4067-71.713ZM37.8798 16.3942L76.0613 16.3942C77.7522 16.3942 79.067 15.0456 79.067 13.3417C79.067 11.6508 77.7522 10.3359 76.0613 10.3359L37.8798 10.3359C36.1759 10.3359 34.8273 11.6508 34.8273 13.3417C34.8273 15.0456 36.1759 16.3942 37.8798 16.3942ZM56.964 33.7559C66.635 33.7559 74.0975 29.2579 74.567 22.3267L39.3741 22.3267C39.8099 29.2579 47.2593 33.7559 56.964 33.7559Z"/>
  </g>
  <g id="Thin-L" transform="matrix(1 0 0 1 800.443 1556)">
   <path d="M21.5205-53.2219L90.4471-53.2219L90.4471-57.0078L21.5205-57.0078ZM16.084-71.7635C16.084-50.4409 30.0726-43.1559 33.6701 1.70714C33.8394 3.54387 34.7026 4.49598 36.9797 4.49598L74.9795 4.49598C77.2566 4.49598 78.1918 3.54387 78.3611 1.70714C81.9586-43.1559 95.8752-50.4409 95.8752-71.7635C95.8752-91.3044 78.2807-108.497 55.9796-108.497C33.7505-108.497 16.084-91.3044 16.084-71.7635ZM19.9582-71.7635C19.9582-89.651 36.3858-104.623 55.9796-104.623C75.5734-104.623 92.0009-89.651 92.0009-71.7635C92.0009-52.9025 78.6844-45.8284 74.5881 0.63015L37.4431 0.63015C33.2748-45.8284 19.9582-52.9025 19.9582-71.7635ZM37.5769 15.2835L74.4458 15.2835C75.8338 15.2835 76.9467 14.1621 76.9467 12.7106C76.9467 11.3227 75.8338 10.2097 74.4458 10.2097L37.5769 10.2097C36.1254 10.2097 35.004 11.3227 35.004 12.7106C35.004 14.1621 36.1254 15.2835 37.5769 15.2835ZM55.9796 31.9889C65.5749 31.9889 72.5073 27.6676 72.9263 20.9888L39.0965 20.9888C39.507 27.6676 46.3759 31.9889 55.9796 31.9889Z"/>
  </g>
  <g id="Ultralight-L" transform="matrix(1 0 0 1 504.236 1556)">
   <path d="M20.4604-53.933L90.4859-53.933L90.4859-56.7234L20.4604-56.7234ZM16.084-71.7893C16.084-51.1003 29.9562-43.5179 33.4632 1.97865C33.6196 3.71194 34.3923 4.56062 36.6306 4.56062L74.3201 4.56062C76.5584 4.56062 77.4161 3.71194 77.5724 1.97865C81.0795-43.5179 94.8668-51.1003 94.8668-71.7893C94.8668-90.839 77.492-108.058 55.4754-108.058C33.5436-108.058 16.084-90.839 16.084-71.7893ZM18.7042-71.7893C18.7042-89.8708 35.4679-105.438 55.4754-105.438C75.4829-105.438 92.2466-89.8708 92.2466-71.7893C92.2466-52.7473 78.6327-45.0526 74.8983 1.93595L36.1373 1.93595C32.318-45.0526 18.7042-52.7473 18.7042-71.7893ZM37.4218 14.7147L73.6184 14.7147C74.8512 14.7147 75.8607 13.7096 75.8607 12.3874C75.8607 11.1546 74.8512 10.1451 73.6184 10.1451L37.4218 10.1451C36.0996 10.1451 35.0945 11.1546 35.0945 12.3874C35.0945 13.7096 36.0996 14.7147 37.4218 14.7147ZM55.4754 31.0839C65.0319 31.0839 71.6928 26.8531 72.0859 20.3036L38.9542 20.3036C39.3519 26.8531 45.9234 31.0839 55.4754 31.0839Z"/>
  </g>
  <g id="Black-M" transform="matrix(1 0 0 1 2885.19 1126)">
   <path d="M21.4404-45.2867L74.9295-45.2867L74.9295-57.332L21.4404-57.332ZM12.4609-65.1918C12.4609-47.4674 22.4897-39.4013 24.6415-10.8163C25-6.09011 28.1737-3.30535 32.8466-3.30535L63.5178-3.30535C68.1907-3.30535 71.3641-6.09011 71.7226-10.8163C73.8744-39.4013 83.9606-47.4103 83.9606-65.1347C83.9606-84.3451 67.6636-98.3525 48.1822-98.3525C28.7006-98.3525 12.4609-84.4022 12.4609-65.1918ZM26.2666-65.1918C26.2666-76.7818 36.3944-84.5468 48.1822-84.5468C59.97-84.4898 70.1549-76.7818 70.1549-65.1918C70.1549-54.9041 62.3834-50.6295 59.0106-17.0484L37.3535-17.0484C33.981-50.6295 26.2666-54.9041 26.2666-65.1918ZM31.555 11.5671L64.8036 11.5671C67.2938 11.5671 69.2325 9.45161 69.2325 7.19559C69.2325 4.87669 67.2938 2.82378 64.8036 2.82378L31.555 2.82378C29.0706 2.82378 27.1264 4.87669 27.1264 7.19559C27.1264 9.45161 29.0706 11.5671 31.555 11.5671ZM48.1822 27.6226C56.6407 27.6226 62.5605 23.654 63.1685 17.6908L32.9046 17.6908C33.5071 23.654 39.7182 27.6226 48.1822 27.6226Z"/>
  </g>
  <g id="Heavy-M" transform="matrix(1 0 0 1 2589.2 1126)">
   <path d="M21.1903-45.616L73.7514-45.616L73.7514-56.3325L21.1903-56.3325ZM12.4609-64.7792C12.4609-46.8162 22.7766-39.5672 25.1531-10.0485C25.4686-6.01644 28.1258-3.62944 32.1443-3.62944L62.781-3.62944C66.7995-3.62944 69.459-6.01644 69.7745-10.0485C72.1509-39.5672 82.508-46.7726 82.508-64.7356C82.508-83.3907 66.6587-97.2145 47.4626-97.2145C28.2689-97.2145 12.4609-83.4343 12.4609-64.7792ZM24.7519-64.7792C24.7519-76.7444 35.2158-84.9235 47.4626-84.9235C59.7095-84.8799 70.217-76.7444 70.217-64.7792C70.217-53.6202 62.0902-49.5732 58.4656-15.8604L36.462-15.8604C32.8351-49.5732 24.7519-53.6202 24.7519-64.7792ZM31.1066 10.2284L63.8045 10.2284C66.0889 10.2284 67.8589 8.31109 67.8589 6.21538C67.8589 4.06192 66.0889 2.20463 63.8045 2.20463L31.1066 2.20463C28.8364 2.20463 27.05 4.06192 27.05 6.21538C27.05 8.31109 28.8364 10.2284 31.1066 10.2284ZM47.4626 25.8267C55.7113 25.8267 61.7257 21.9298 62.2882 16.0461L32.4049 16.0461C32.9509 21.9298 39.1976 25.8267 47.4626 25.8267Z"/>
  </g>
  <g id="Bold-M" transform="matrix(1 0 0 1 2293.31 1126)">
   <path d="M20.9106-45.9844L72.4335-45.9844L72.4335-55.2144L20.9106-55.2144ZM12.4609-64.3176C12.4609-46.0878 23.0976-39.7528 25.7253-9.18952C25.9927-5.93404 28.0723-3.99197 31.3586-3.99197L61.9568-3.99197C65.2432-3.99197 67.3278-5.93404 67.5953-9.18952C70.223-39.7528 80.883-46.0593 80.883-64.2891C80.883-82.323 65.5346-95.9416 46.6577-95.9416C27.786-95.9416 12.4609-82.3516 12.4609-64.3176ZM23.0576-64.3176C23.0576-76.7026 33.8973-85.3449 46.6577-85.3449C59.4182-85.3163 70.2864-76.7026 70.2864-64.3176C70.2864-52.1841 61.7622-48.3917 57.8559-14.5315L35.4646-14.5315C31.5533-48.3917 23.0576-52.1841 23.0576-64.3176ZM30.605 8.73088L62.6869 8.73088C64.741 8.73088 66.3223 7.03525 66.3223 5.11888C66.3223 3.15048 64.741 1.51203 62.6869 1.51203L30.605 1.51203C28.5745 1.51203 26.9645 3.15048 26.9645 5.11888C26.9645 7.03525 28.5745 8.73088 30.605 8.73088ZM46.6577 23.8177C54.6717 23.8177 60.7919 20.0011 61.3034 14.2063L31.8458 14.2063C32.3287 20.0011 38.6151 23.8177 46.6577 23.8177Z"/>
  </g>
  <g id="Semibold-M" transform="matrix(1 0 0 1 1997.15 1126)">
   <path d="M20.7177-46.2383L71.525-46.2383L71.525-54.4436L20.7177-54.4436ZM12.4609-63.9994C12.4609-45.5857 23.3188-39.8808 26.1198-8.59736C26.3541-5.87723 28.0353-4.2419 30.817-4.2419L61.3886-4.2419C64.1703-4.2419 65.8586-5.87723 66.0929-8.59736C68.8939-39.8808 79.7628-45.5675 79.7628-63.9813C79.7628-81.587 64.7596-95.064 46.1028-95.064C27.4531-95.064 12.4609-81.6051 12.4609-63.9994ZM21.8895-63.9994C21.8895-76.6738 32.9883-85.6354 46.1028-85.6354C59.2173-85.6172 70.3342-76.6738 70.3342-63.9994C70.3342-51.194 61.5361-47.5772 57.4356-13.6153L34.7771-13.6153C30.6695-47.5772 21.8895-51.194 21.8895-63.9994ZM30.2592 7.69849L61.9164 7.69849C63.8117 7.69849 65.263 6.1557 65.263 4.36296C65.263 2.52214 63.8117 1.03455 61.9164 1.03455L30.2592 1.03455C28.3939 1.03455 26.9055 2.52214 26.9055 4.36296C26.9055 6.1557 28.3939 7.69849 30.2592 7.69849ZM46.1028 22.4327C53.955 22.4327 60.1481 18.6715 60.6244 12.9379L31.4604 12.9379C31.8998 18.6715 38.2136 22.4327 46.1028 22.4327Z"/>
  </g>
  <g id="Medium-M" transform="matrix(1 0 0 1 1700.87 1126)">
   <path d="M20.5715-46.4308L70.8361-46.4308L70.8361-53.8592L20.5715-53.8592ZM12.4609-63.7582C12.4609-45.2049 23.4866-39.9778 26.4189-8.14836C26.6281-5.83416 28.0073-4.43141 30.4063-4.43141L60.9578-4.43141C63.3568-4.43141 64.7446-5.83416 64.9538-8.14836C67.8861-39.9778 78.9134-45.1947 78.9134-63.7479C78.9134-81.0289 64.172-94.3986 45.682-94.3986C27.2007-94.3986 12.4609-81.0392 12.4609-63.7582ZM21.0039-63.7582C21.0039-76.6519 32.2991-85.8556 45.682-85.8556C59.065-85.8454 70.3705-76.6519 70.3705-63.7582C70.3705-50.4433 61.3646-46.9595 57.1169-12.9206L34.2558-12.9206C29.9995-46.9595 21.0039-50.4433 21.0039-63.7582ZM29.997 6.91569L61.3322 6.91569C63.1072 6.91569 64.4598 5.48878 64.4598 3.78979C64.4598 2.0457 63.1072 0.672503 61.3322 0.672503L29.997 0.672503C28.2569 0.672503 26.8609 2.0457 26.8609 3.78979C26.8609 5.48878 28.2569 6.91569 29.997 6.91569ZM45.682 21.3825C53.4116 21.3825 59.6599 17.6633 60.1097 11.9762L31.1682 11.9762C31.5746 17.6633 37.9091 21.3825 45.682 21.3825Z"/>
  </g>
  <g id="Regular-M" transform="matrix(1 0 0 1 1404.71 1126)">
   <path d="M20.3807-46.682L69.9375-46.682L69.9375-53.0969L20.3807-53.0969ZM12.4609-63.4435C12.4609-44.7083 23.7054-40.1043 26.8091-7.56271C26.9855-5.77797 27.9708-4.67859 29.8706-4.67859L60.3959-4.67859C62.2957-4.67859 63.2915-5.77797 63.4679-7.56271C66.5716-40.1043 77.8055-44.7083 77.8055-63.4435C77.8055-80.3009 63.4056-93.5306 45.1332-93.5306C26.8714-93.5306 12.4609-80.3009 12.4609-63.4435ZM19.8486-63.4435C19.8486-76.6234 31.4001-86.1429 45.1332-86.1429C58.8664-86.1429 70.4179-76.6234 70.4179-63.4435C70.4179-49.4641 61.141-46.1539 56.7013-12.0145L33.5758-12.0145C29.1255-46.1539 19.8486-49.4641 19.8486-63.4435ZM29.655 5.89464L60.5702 5.89464C62.1882 5.89464 63.4122 4.6189 63.4122 3.04218C63.4122 1.42426 62.1882 0.200272 60.5702 0.200272L29.655 0.200272C28.0783 0.200272 26.8026 1.42426 26.8026 3.04218C26.8026 4.6189 28.0783 5.89464 29.655 5.89464ZM45.1332 20.0127C52.7028 20.0127 59.0232 16.3483 59.4382 10.7218L30.7871 10.7218C31.1503 16.3483 37.512 20.0127 45.1332 20.0127Z"/>
  </g>
  <g id="Light-M" transform="matrix(1 0 0 1 1108.67 1126)">
   <path d="M18.9776-47.6231L69.9888-47.6231L69.9888-52.7204L18.9776-52.7204ZM12.4609-63.4777C12.4609-45.581 23.5514-40.5834 26.5353-7.20338C26.6946-5.55553 27.5601-4.59304 29.4086-4.59304L59.5232-4.59304C61.3717-4.59304 62.2649-5.55553 62.4241-7.20338C65.408-40.5834 76.4709-45.581 76.4709-63.4777C76.4709-79.6849 62.3618-92.9488 44.4659-92.9488C26.5976-92.9488 12.4609-79.6849 12.4609-63.4777ZM18.1889-63.4777C18.1889-76.9143 30.1852-87.2209 44.4659-87.2209C58.7466-87.2209 70.743-76.9143 70.743-63.4777C70.743-49.2588 61.0726-45.1273 57.1119-10.2863L31.8475-10.2863C27.8593-45.1273 18.1889-49.2588 18.1889-63.4777ZM29.4497 5.14176L59.4751 5.14176C60.8877 5.14176 61.9748 4.02001 61.9748 2.61441C61.9748 1.20182 60.8877 0.114717 59.4751 0.114717L29.4497 0.114717C28.0441 0.114717 26.9223 1.20182 26.9223 2.61441C26.9223 4.02001 28.0441 5.14176 29.4497 5.14176ZM44.4659 18.8149C51.9841 18.8149 57.9452 15.2703 58.326 9.81487L30.5988 9.81487C30.945 15.2703 36.9131 18.8149 44.4659 18.8149Z"/>
  </g>
  <g id="Thin-M" transform="matrix(1 0 0 1 812.839 1126)">
   <path d="M17.1219-48.8678L70.0567-48.8678L70.0567-52.2226L17.1219-52.2226ZM12.4609-63.5229C12.4609-46.7351 23.3478-41.2171 26.1732-6.72813C26.3099-5.26133 27.017-4.47988 28.7976-4.47988L58.3691-4.47988C60.1496-4.47988 60.9071-5.26133 61.0437-6.72813C63.8692-41.2171 74.7057-46.7351 74.7057-63.5229C74.7057-78.8702 60.9814-92.1794 43.5833-92.1794C26.2356-92.1794 12.4609-78.8702 12.4609-63.5229ZM15.9937-63.5229C15.9937-77.299 28.5784-88.6467 43.5833-88.6467C58.5882-88.6467 71.1729-77.299 71.1729-63.5229C71.1729-48.9872 60.982-43.7695 57.6551-8.00063L29.5619-8.00063C26.1846-43.7695 15.9937-48.9872 15.9937-63.5229ZM29.1781 4.14601L58.0268 4.14601C59.1678 4.14601 60.0739 3.22794 60.0739 2.04864C60.0739 0.907622 59.1678 0.00156448 58.0268 0.00156448L29.1781 0.00156448C27.9988 0.00156448 27.0808 0.907622 27.0808 2.04864C27.0808 3.22794 27.9988 4.14601 29.1781 4.14601ZM43.5833 17.2308C51.0336 17.2308 56.5195 13.8446 56.855 8.61545L30.3499 8.61545C30.6734 13.8446 36.121 17.2308 43.5833 17.2308Z"/>
  </g>
  <g id="Ultralight-M" transform="matrix(1 0 0 1 516.58 1126)">
   <path d="M16.1714-49.5053L70.0915-49.5053L70.0915-51.9676L16.1714-51.9676ZM12.4609-63.5461C12.4609-47.3263 23.2434-41.5416 25.9878-6.48472C26.1128-5.11065 26.7388-4.42193 28.4846-4.42193L57.7779-4.42193C59.5237-4.42193 60.2116-5.11065 60.3366-6.48472C63.081-41.5416 73.8016-47.3263 73.8016-63.5461C73.8016-78.4529 60.2743-91.7853 43.1313-91.7853C26.0501-91.7853 12.4609-78.4529 12.4609-63.5461ZM14.8693-63.5461C14.8693-77.4961 27.7555-89.3769 43.1313-89.3769C58.507-89.3769 71.3932-77.4961 71.3932-63.5461C71.3932-48.8481 60.9357-43.074 57.9333-6.82991L28.3911-6.82991C25.3268-43.074 14.8693-48.8481 14.8693-63.5461ZM29.039 3.636L57.2849 3.636C58.2869 3.636 59.1002 2.82225 59.1002 1.75886C59.1002 0.756936 58.2869-0.0563919 57.2849-0.0563919L29.039-0.0563919C27.9756-0.0563919 27.1619 0.756936 27.1619 1.75886C27.1619 2.82225 27.9756 3.636 29.039 3.636ZM43.1313 16.4194C50.5468 16.4194 55.7892 13.1143 56.1016 8.00111L30.2224 8.00111C30.5343 13.1143 35.7153 16.4194 43.1313 16.4194Z"/>
  </g>
  <g id="Black-S" transform="matrix(1 0 0 1 2895.44 696)">
   <path d="M16.7969-43.0664L59.082-43.0664L59.082-52.832L16.7969-52.832ZM9.76562-58.8379C9.76562-45.0684 17.5293-38.4766 19.1406-16.3086C19.4336-12.4023 22.0703-10.1074 25.9277-10.1074L49.9512-10.1074C53.8086-10.1074 56.4453-12.4023 56.7383-16.3086C58.3496-38.4766 66.1621-45.0195 66.1621-58.7891C66.1621-73.9746 53.2715-85.0098 37.9395-85.0098C22.6074-85.0098 9.76562-74.0234 9.76562-58.8379ZM20.9473-58.8379C20.9473-67.8223 28.8086-73.8281 37.9395-73.8281C47.0703-73.7793 54.9805-67.8223 54.9805-58.8379C54.9805-51.0254 48.9746-47.5586 46.4355-21.2402L29.4434-21.2402C26.9043-47.5586 20.9473-51.0254 20.9473-58.8379ZM24.8535 1.80664L51.0254 1.80664C53.0273 1.80664 54.5898 0.0976562 54.5898-1.70898C54.5898-3.56445 53.0273-5.22461 51.0254-5.22461L24.8535-5.22461C22.8516-5.22461 21.2891-3.56445 21.2891-1.70898C21.2891 0.0976562 22.8516 1.80664 24.8535 1.80664ZM37.9395 14.502C44.6289 14.502 49.2188 11.377 49.707 6.68945L25.9277 6.68945C26.416 11.377 31.25 14.502 37.9395 14.502Z"/>
  </g>
  <g id="Heavy-S" transform="matrix(1 0 0 1 2599.26 696)">
   <path d="M16.7623-43.2277L58.0679-43.2277L58.0679-52.0253L16.7623-52.0253ZM9.76562-58.4806C9.76562-44.3999 17.7944-38.5572 19.6131-15.6978C19.8715-12.3678 22.0818-10.3955 25.3861-10.3955L49.4326-10.3955C52.7368-10.3955 54.9471-12.3678 55.2055-15.6978C57.0243-38.5572 65.0903-44.3626 65.0903-58.4433C65.0903-73.237 52.5454-84.1109 37.4093-84.1109C22.2732-84.1109 9.76562-73.2743 9.76562-58.4806ZM19.864-58.4806C19.864-67.7531 27.9558-74.0125 37.4093-74.0125C46.8629-73.9752 54.992-67.7531 54.992-58.4806C54.992-49.9536 48.7326-46.7865 45.9169-20.445L28.9017-20.445C26.0861-46.7865 19.864-49.9536 19.864-58.4806ZM24.4963 0.757914L50.3109 0.757914C52.163 0.757914 53.5987-0.801252 53.5987-2.49265C53.5987-4.23287 52.163-5.74321 50.3109-5.74321L24.4963-5.74321C22.6556-5.74321 21.2084-4.23287 21.2084-2.49265C21.2084-0.801252 22.6556 0.757914 24.4963 0.757914ZM37.4093 13.119C43.9259 13.119 48.6425 10.0401 49.0962 5.39871L25.5244 5.39871C25.9666 10.0401 30.8812 13.119 37.4093 13.119Z"/>
  </g>
  <g id="Bold-S" transform="matrix(1 0 0 1 2303.15 696)">
   <path d="M16.7236-43.4082L56.9336-43.4082L56.9336-51.123L16.7236-51.123ZM9.76562-58.0811C9.76562-43.6523 18.0908-38.6475 20.1416-15.0146C20.3613-12.3291 22.0947-10.7178 24.7803-10.7178L48.8525-10.7178C51.5381-10.7178 53.2715-12.3291 53.4912-15.0146C55.542-38.6475 63.8916-43.6279 63.8916-58.0566C63.8916-72.4121 51.7334-83.1055 36.8164-83.1055C21.8994-83.1055 9.76562-72.4365 9.76562-58.0811ZM18.6523-58.0811C18.6523-67.6758 27.002-74.2188 36.8164-74.2188C46.6309-74.1943 55.0049-67.6758 55.0049-58.0811C55.0049-48.7549 48.4619-45.9229 45.3369-19.5557L28.2959-19.5557C25.1709-45.9229 18.6523-48.7549 18.6523-58.0811ZM24.0967-0.415039L49.5117-0.415039C51.1963-0.415039 52.4902-1.80664 52.4902-3.36914C52.4902-4.98047 51.1963-6.32324 49.5117-6.32324L24.0967-6.32324C22.4365-6.32324 21.1182-4.98047 21.1182-3.36914C21.1182-1.80664 22.4365-0.415039 24.0967-0.415039ZM36.8164 11.5723C43.1396 11.5723 47.998 8.54492 48.4131 3.95508L25.0732 3.95508C25.4639 8.54492 30.4688 11.5723 36.8164 11.5723Z"/>
  </g>
  <g id="Semibold-S" transform="matrix(1 0 0 1 2006.85 696)">
   <path d="M16.697-43.5326L56.1516-43.5326L56.1516-50.501L16.697-50.501ZM9.76562-57.8056C9.76562-43.1369 18.2952-38.7097 20.506-14.5437C20.699-12.3024 22.1036-10.9399 24.3626-10.9399L48.4526-10.9399C50.7116-10.9399 52.1162-12.3024 52.3093-14.5437C54.52-38.7097 63.0651-43.1214 63.0651-57.79C63.0651-71.8434 51.1735-82.4123 36.4076-82.4123C21.6417-82.4123 9.76562-71.8589 9.76562-57.8056ZM17.817-57.8056C17.817-67.6225 26.3443-74.3609 36.4076-74.3609C46.4709-74.3454 55.0138-67.6225 55.0138-57.8056C55.0138-47.9284 48.2753-45.3274 44.937-18.9425L27.8782-18.9425C24.5399-45.3274 17.817-47.9284 17.817-57.8056ZM23.8212-1.22373L48.9607-1.22373C50.5298-1.22373 51.726-2.4998 51.726-3.97344C51.726-5.4959 50.5298-6.72314 48.9607-6.72314L23.8212-6.72314C22.2854-6.72314 21.056-5.4959 21.056-3.97344C21.056-2.4998 22.2854-1.22373 23.8212-1.22373ZM36.4076 10.5059C42.5976 10.5059 47.5537 7.51406 47.9421 2.95977L24.7622 2.95977C25.1173 7.51406 30.1844 10.5059 36.4076 10.5059Z"/>
  </g>
  <g id="Medium-S" transform="matrix(1 0 0 1 1710.45 696)">
   <path d="M16.6768-43.627L55.5586-43.627L55.5586-50.0293L16.6768-50.0293ZM9.76562-57.5967C9.76562-42.7461 18.4502-38.7568 20.7822-14.1865C20.9551-12.2822 22.1104-11.1084 24.0459-11.1084L48.1494-11.1084C50.085-11.1084 51.2402-12.2822 51.4131-14.1865C53.7451-38.7568 62.4385-42.7373 62.4385-57.5879C62.4385-71.4121 50.749-81.8867 36.0977-81.8867C21.4463-81.8867 9.76562-71.4209 9.76562-57.5967ZM17.1836-57.5967C17.1836-67.582 25.8457-74.4688 36.0977-74.4688C46.3496-74.46 55.0205-67.582 55.0205-57.5967C55.0205-47.3018 48.1338-44.876 44.6338-18.4775L27.5615-18.4775C24.0615-44.876 17.1836-47.3018 17.1836-57.5967ZM23.6123-1.83691L48.543-1.83691C50.0244-1.83691 51.1465-3.02539 51.1465-4.43164C51.1465-5.88672 50.0244-7.02637 48.543-7.02637L23.6123-7.02637C22.1709-7.02637 21.0088-5.88672 21.0088-4.43164C21.0088-3.02539 22.1709-1.83691 23.6123-1.83691ZM36.0977 9.69727C42.1865 9.69727 47.2168 6.73242 47.585 2.20508L24.5264 2.20508C24.8545 6.73242 29.9688 9.69727 36.0977 9.69727Z"/>
  </g>
  <g id="Regular-S" transform="matrix(1 0 0 1 1414.15 696)">
   <path d="M16.6504-43.75L54.7852-43.75L54.7852-49.4141L16.6504-49.4141ZM9.76562-57.3242C9.76562-42.2363 18.6523-38.8184 21.1426-13.7207C21.2891-12.2559 22.1191-11.3281 23.6328-11.3281L47.7539-11.3281C49.2676-11.3281 50.0977-12.2559 50.2441-13.7207C52.7344-38.8184 61.6211-42.2363 61.6211-57.3242C61.6211-70.8496 50.1953-81.2012 35.6934-81.2012C21.1914-81.2012 9.76562-70.8496 9.76562-57.3242ZM16.3574-57.3242C16.3574-67.5293 25.1953-74.6094 35.6934-74.6094C46.1914-74.6094 55.0293-67.5293 55.0293-57.3242C55.0293-46.4844 47.9492-44.2871 44.2383-17.8711L27.1484-17.8711C23.4375-44.2871 16.3574-46.4844 16.3574-57.3242ZM23.3398-2.63672L47.998-2.63672C49.3652-2.63672 50.3906-3.71094 50.3906-5.0293C50.3906-6.39648 49.3652-7.42188 47.998-7.42188L23.3398-7.42188C22.0215-7.42188 20.9473-6.39648 20.9473-5.0293C20.9473-3.71094 22.0215-2.63672 23.3398-2.63672ZM35.6934 8.64258C41.6504 8.64258 46.7773 5.71289 47.1191 1.2207L24.2188 1.2207C24.5117 5.71289 29.6875 8.64258 35.6934 8.64258Z"/>
  </g>
  <g id="Light-S" transform="matrix(1 0 0 1 1118.03 696)">
   <path d="M15.4092-44.5825L54.8306-44.5825L54.8306-49.0811L15.4092-49.0811ZM9.76562-57.3545C9.76562-43.0083 18.5161-39.2422 20.9004-13.4028C21.0317-12.0591 21.7559-11.2524 23.2241-11.2524L46.9819-11.2524C48.4502-11.2524 49.1895-12.0591 49.3208-13.4028C51.7051-39.2422 60.4404-43.0083 60.4404-57.3545C60.4404-70.3047 49.272-80.6865 35.103-80.6865C20.9492-80.6865 9.76562-70.3047 9.76562-57.3545ZM14.8892-57.3545C14.8892-67.7866 24.1206-75.563 35.103-75.563C46.0855-75.563 55.3169-67.7866 55.3169-57.3545C55.3169-46.3027 47.8887-43.3789 44.6016-16.3423L25.6196-16.3423C22.3174-43.3789 14.8892-46.3027 14.8892-57.3545ZM23.1582-3.30273L47.0293-3.30273C48.2149-3.30273 49.1192-4.24072 49.1192-5.40771C49.1192-6.59326 48.2149-7.49756 47.0293-7.49756L23.1582-7.49756C21.9912-7.49756 21.0532-6.59326 21.0532-5.40771C21.0532-4.24072 21.9912-3.30273 23.1582-3.30273ZM35.103 7.58302C41.0147 7.58302 45.8237 4.75928 46.1353 0.418463L24.0522 0.418463C24.3301 4.75928 29.1577 7.58302 35.103 7.58302Z"/>
  </g>
  <g id="Thin-S" transform="matrix(1 0 0 1 822.1 696)">
   <path d="M13.7676-45.6836L54.8906-45.6836L54.8906-48.6406L13.7676-48.6406ZM9.76562-57.3945C9.76562-44.0293 18.3359-39.8027 20.5801-12.9824C20.6914-11.7988 21.2754-11.1523 22.6836-11.1523L45.961-11.1523C47.3692-11.1523 47.9883-11.7988 48.0996-12.9824C50.3438-39.8027 58.8789-44.0293 58.8789-57.3945C58.8789-69.584 48.0508-80.0059 34.3223-80.0059C20.6289-80.0059 9.76562-69.584 9.76562-57.3945ZM12.9473-57.3945C12.9473-68.1269 22.6992-76.8242 34.3223-76.8242C45.9453-76.8242 55.6973-68.1269 55.6973-57.3945C55.6973-46.0625 47.8086-42.1778 45.082-14.3203L23.5977-14.3203C20.836-42.1778 12.9473-46.0625 12.9473-57.3945ZM22.918-4.18358L45.7481-4.18358C46.6934-4.18358 47.4375-4.9414 47.4375-5.9082C47.4375-6.85351 46.6934-7.59765 45.7481-7.59765L22.918-7.59765C21.9512-7.59765 21.1934-6.85351 21.1934-5.9082C21.1934-4.9414 21.9512-4.18358 22.918-4.18358ZM34.3223 6.18166C40.1738 6.18166 44.5625 3.49806 44.834-0.642563L23.832-0.642563C24.0898 3.49806 28.457 6.18166 34.3223 6.18166Z"/>
  </g>
  <g id="Ultralight-S" transform="matrix(1 0 0 1 525.789 696)">
   <path d="M12.9268-46.2475L54.9214-46.2475L54.9214-48.415L12.9268-48.415ZM9.76562-57.415C9.76562-44.5522 18.2437-40.0898 20.416-12.7671C20.5171-11.6655 21.0293-11.1011 22.4067-11.1011L45.438-11.1011C46.8154-11.1011 47.3731-11.6655 47.4741-12.7671C49.6465-40.0898 58.0791-44.5522 58.0791-57.415C58.0791-69.2149 47.4253-79.6572 33.9224-79.6572C20.4648-79.6572 9.76562-69.2149 9.76562-57.415ZM11.9527-57.415C11.9527-68.3013 21.9712-77.4702 33.9224-77.4702C45.8735-77.4702 55.8921-68.3013 55.8921-57.415C55.8921-45.9395 47.7676-41.5625 45.3281-13.2847L22.562-13.2847C20.0772-41.5625 11.9527-45.9395 11.9527-57.415ZM22.7949-4.63475L45.0918-4.63475C45.9141-4.63475 46.5762-5.30028 46.5762-6.16454C46.5762-6.98681 45.9141-7.64892 45.0918-7.64892L22.7949-7.64892C21.9307-7.64892 21.2651-6.98681 21.2651-6.16454C21.2651-5.30028 21.9307-4.63475 22.7949-4.63475ZM33.9224 5.46389C39.7432 5.46389 43.9165 2.85207 44.1675-1.18602L23.7192-1.18602C23.9668 2.85207 28.0982 5.46389 33.9224 5.46389Z"/>
  </g>
 </g>
</svg>
