<?xml version="1.0" encoding="UTF-8"?>
<!--Generator: Apple Native CoreSVG 175.5-->
<!DOCTYPE svg
PUBLIC "-//W3C//DTD SVG 1.1//EN"
       "http://www.w3.org/Graphics/SVG/1.1/DTD/svg11.dtd">
<svg version="1.1" xmlns="http://www.w3.org/2000/svg" xmlns:xlink="http://www.w3.org/1999/xlink" width="3300" height="2200">
 <!--glyph: "uni10131D.medium", point size: 100.0, font version: "18.0d12e2", template writer version: "101"-->
 <g id="Notes">
  <rect height="2200" id="artboard" style="fill:white;opacity:1" width="3300" x="0" y="0"/>
  <line style="fill:none;stroke:black;opacity:1;stroke-width:0.5;" x1="263" x2="3036" y1="292" y2="292"/>
  <text style="stroke:none;fill:black;font-family:sans-serif;font-size:13;font-weight:bold;" transform="matrix(1 0 0 1 263 322)">Weight/Scale Variations</text>
  <text style="stroke:none;fill:black;font-family:sans-serif;font-size:13;text-anchor:middle;" transform="matrix(1 0 0 1 559.711 322)">Ultralight</text>
  <text style="stroke:none;fill:black;font-family:sans-serif;font-size:13;text-anchor:middle;" transform="matrix(1 0 0 1 856.422 322)">Thin</text>
  <text style="stroke:none;fill:black;font-family:sans-serif;font-size:13;text-anchor:middle;" transform="matrix(1 0 0 1 1153.13 322)">Light</text>
  <text style="stroke:none;fill:black;font-family:sans-serif;font-size:13;text-anchor:middle;" transform="matrix(1 0 0 1 1449.84 322)">Regular</text>
  <text style="stroke:none;fill:black;font-family:sans-serif;font-size:13;text-anchor:middle;" transform="matrix(1 0 0 1 1746.56 322)">Medium</text>
  <text style="stroke:none;fill:black;font-family:sans-serif;font-size:13;text-anchor:middle;" transform="matrix(1 0 0 1 2043.27 322)">Semibold</text>
  <text style="stroke:none;fill:black;font-family:sans-serif;font-size:13;text-anchor:middle;" transform="matrix(1 0 0 1 2339.98 322)">Bold</text>
  <text style="stroke:none;fill:black;font-family:sans-serif;font-size:13;text-anchor:middle;" transform="matrix(1 0 0 1 2636.69 322)">Heavy</text>
  <text style="stroke:none;fill:black;font-family:sans-serif;font-size:13;text-anchor:middle;" transform="matrix(1 0 0 1 2933.4 322)">Black</text>
  <line style="fill:none;stroke:black;opacity:1;stroke-width:0.5;" x1="263" x2="3036" y1="1903" y2="1903"/>
  <g transform="matrix(1 0 0 1 263 1933)">
   <path d="M9.24805 0.830078C13.5547 0.830078 17.1387-2.74414 17.1387-7.05078C17.1387-11.3574 13.5449-14.9316 9.23828-14.9316C4.94141-14.9316 1.36719-11.3574 1.36719-7.05078C1.36719-2.74414 4.95117 0.830078 9.24805 0.830078ZM9.24805-0.654297C5.70312-0.654297 2.87109-3.49609 2.87109-7.05078C2.87109-10.6055 5.69336-13.4473 9.23828-13.4473C12.793-13.4473 15.6445-10.6055 15.6445-7.05078C15.6445-3.49609 12.8027-0.654297 9.24805-0.654297ZM5.6543-7.05078C5.6543-6.62109 5.95703-6.32812 6.40625-6.32812L8.50586-6.32812L8.50586-4.20898C8.50586-3.76953 8.79883-3.4668 9.22852-3.4668C9.67773-3.4668 9.9707-3.76953 9.9707-4.20898L9.9707-6.32812L12.0898-6.32812C12.5293-6.32812 12.832-6.62109 12.832-7.05078C12.832-7.49023 12.5293-7.79297 12.0898-7.79297L9.9707-7.79297L9.9707-9.90234C9.9707-10.3516 9.67773-10.6543 9.22852-10.6543C8.79883-10.6543 8.50586-10.3516 8.50586-9.90234L8.50586-7.79297L6.40625-7.79297C5.95703-7.79297 5.6543-7.49023 5.6543-7.05078Z"/>
  </g>
  <g transform="matrix(1 0 0 1 281.867 1933)">
   <path d="M11.709 2.91016C17.1582 2.91016 21.6699-1.61133 21.6699-7.05078C21.6699-12.5 17.1484-17.0117 11.6992-17.0117C6.25977-17.0117 1.74805-12.5 1.74805-7.05078C1.74805-1.61133 6.26953 2.91016 11.709 2.91016ZM11.709 1.25C7.09961 1.25 3.41797-2.44141 3.41797-7.05078C3.41797-11.6602 7.08984-15.3516 11.6992-15.3516C16.3086-15.3516 20.0098-11.6602 20.0098-7.05078C20.0098-2.44141 16.3184 1.25 11.709 1.25ZM7.17773-7.05078C7.17773-6.57227 7.50977-6.25 8.00781-6.25L10.8789-6.25L10.8789-3.36914C10.8789-2.88086 11.2109-2.53906 11.6895-2.53906C12.1777-2.53906 12.5195-2.87109 12.5195-3.36914L12.5195-6.25L15.4004-6.25C15.8887-6.25 16.2305-6.57227 16.2305-7.05078C16.2305-7.53906 15.8887-7.88086 15.4004-7.88086L12.5195-7.88086L12.5195-10.752C12.5195-11.25 12.1777-11.5918 11.6895-11.5918C11.2109-11.5918 10.8789-11.25 10.8789-10.752L10.8789-7.88086L8.00781-7.88086C7.50977-7.88086 7.17773-7.53906 7.17773-7.05078Z"/>
  </g>
  <g transform="matrix(1 0 0 1 305.646 1933)">
   <path d="M14.9707 5.66406C21.9336 5.66406 27.6953-0.0976562 27.6953-7.05078C27.6953-14.0137 21.9238-19.7754 14.9609-19.7754C8.00781-19.7754 2.25586-14.0137 2.25586-7.05078C2.25586-0.0976562 8.01758 5.66406 14.9707 5.66406ZM14.9707 3.84766C8.93555 3.84766 4.08203-1.01562 4.08203-7.05078C4.08203-13.0957 8.92578-17.9492 14.9609-17.9492C21.0059-17.9492 25.8691-13.0957 25.8691-7.05078C25.8691-1.01562 21.0156 3.84766 14.9707 3.84766ZM9.19922-7.05078C9.19922-6.5332 9.57031-6.17188 10.1172-6.17188L14.0625-6.17188L14.0625-2.2168C14.0625-1.67969 14.4336-1.29883 14.9512-1.29883C15.4883-1.29883 15.8594-1.66992 15.8594-2.2168L15.8594-6.17188L19.8145-6.17188C20.3516-6.17188 20.7324-6.5332 20.7324-7.05078C20.7324-7.59766 20.3613-7.96875 19.8145-7.96875L15.8594-7.96875L15.8594-11.9141C15.8594-12.4609 15.4883-12.8418 14.9512-12.8418C14.4336-12.8418 14.0625-12.4609 14.0625-11.9141L14.0625-7.96875L10.1172-7.96875C9.57031-7.96875 9.19922-7.59766 9.19922-7.05078Z"/>
  </g>
  <text style="stroke:none;fill:black;font-family:sans-serif;font-size:13;font-weight:bold;" transform="matrix(1 0 0 1 263 1953)">Design Variations</text>
  <text style="stroke:none;fill:black;font-family:sans-serif;font-size:13;" transform="matrix(1 0 0 1 263 1971)">Symbols are supported in up to nine weights and three scales.</text>
  <text style="stroke:none;fill:black;font-family:sans-serif;font-size:13;" transform="matrix(1 0 0 1 263 1989)">For optimal layout with text and other symbols, vertically align</text>
  <text style="stroke:none;fill:black;font-family:sans-serif;font-size:13;" transform="matrix(1 0 0 1 263 2007)">symbols with the adjacent text.</text>
  <line style="fill:none;stroke:#00AEEF;stroke-width:0.5;opacity:1.0;" x1="776" x2="776" y1="1919" y2="1933"/>
  <g transform="matrix(1 0 0 1 776 1933)">
   <path d="M3.31055 0.15625C3.82812 0.15625 4.08203-0.0390625 4.26758-0.585938L5.52734-4.0332L11.2891-4.0332L12.5488-0.585938C12.7344-0.0390625 12.9883 0.15625 13.4961 0.15625C14.0137 0.15625 14.3457-0.15625 14.3457-0.644531C14.3457-0.810547 14.3164-0.966797 14.2383-1.17188L9.6582-13.3691C9.43359-13.9648 9.0332-14.2676 8.4082-14.2676C7.80273-14.2676 7.39258-13.9746 7.17773-13.3789L2.59766-1.16211C2.51953-0.957031 2.49023-0.800781 2.49023-0.634766C2.49023-0.146484 2.80273 0.15625 3.31055 0.15625ZM6.00586-5.51758L8.37891-12.0898L8.42773-12.0898L10.8008-5.51758Z"/>
  </g>
  <line style="fill:none;stroke:#00AEEF;stroke-width:0.5;opacity:1.0;" x1="793.197" x2="793.197" y1="1919" y2="1933"/>
  <text style="stroke:none;fill:black;font-family:sans-serif;font-size:13;font-weight:bold;" transform="matrix(1 0 0 1 776 1953)">Margins</text>
  <text style="stroke:none;fill:black;font-family:sans-serif;font-size:13;" transform="matrix(1 0 0 1 776 1971)">Leading and trailing margins on the left and right side of each symbol</text>
  <text style="stroke:none;fill:black;font-family:sans-serif;font-size:13;" transform="matrix(1 0 0 1 776 1989)">can be adjusted by modifying the x-location of the margin guidelines.</text>
  <text style="stroke:none;fill:black;font-family:sans-serif;font-size:13;" transform="matrix(1 0 0 1 776 2007)">Modifications are automatically applied proportionally to all</text>
  <text style="stroke:none;fill:black;font-family:sans-serif;font-size:13;" transform="matrix(1 0 0 1 776 2025)">scales and weights.</text>
  <g transform="matrix(1 0 0 1 1289 1933)">
   <path d="M2.8418 1.86523L4.54102 3.57422C5.40039 4.44336 6.38672 4.38477 7.31445 3.35938L18.0078-8.42773L17.041-9.4043L6.42578 2.27539C6.07422 2.67578 5.74219 2.77344 5.27344 2.30469L4.10156 1.14258C3.63281 0.683594 3.74023 0.341797 4.14062-0.0195312L15.6152-10.8203L14.6387-11.7871L3.04688-0.898438C2.06055 0.0195312 1.98242 0.996094 2.8418 1.86523ZM9.25781-16.3281C8.83789-15.918 8.80859-15.3418 9.04297-14.9512C9.27734-14.5898 9.73633-14.3555 10.3809-14.5215C11.8457-14.8633 13.3691-14.9219 14.7949-13.9844L14.209-12.5293C13.8672-11.6992 14.043-11.1133 14.5801-10.5664L16.875-8.25195C17.3633-7.76367 17.7734-7.74414 18.3398-7.8418L19.4043-8.03711L20.0684-7.36328L20.0293-6.80664C19.9902-6.30859 20.1172-5.92773 20.6055-5.44922L21.3672-4.70703C21.8457-4.22852 22.4609-4.19922 22.9297-4.66797L25.8398-7.58789C26.3086-8.05664 26.2891-8.65234 25.8105-9.13086L25.0391-9.89258C24.5605-10.3711 24.1895-10.5273 23.7109-10.4883L23.1348-10.4395L22.4902-11.0742L22.7344-12.1973C22.8613-12.7637 22.7051-13.2031 22.1191-13.7891L19.9219-15.9766C16.582-19.2969 12.1484-19.2188 9.25781-16.3281ZM10.752-15.957C13.1836-17.7344 16.4746-17.4316 18.7012-15.2051L21.1328-12.793C21.3672-12.5586 21.4062-12.373 21.3379-12.0312L21.0156-10.5469L22.5195-9.0625L23.5059-9.12109C23.7598-9.13086 23.8379-9.11133 24.0332-8.91602L24.6094-8.33984L22.168-5.89844L21.5918-6.47461C21.3965-6.66992 21.3672-6.74805 21.377-7.01172L21.4453-7.98828L19.9512-9.47266L18.4277-9.21875C18.1055-9.15039 17.959-9.17969 17.7148-9.41406L15.7129-11.416C15.459-11.6504 15.4297-11.8164 15.5859-12.1875L16.4648-14.2773C14.9023-15.7324 12.8711-16.3574 10.8398-15.7617C10.6836-15.7227 10.625-15.8496 10.752-15.957Z"/>
  </g>
  <text style="stroke:none;fill:black;font-family:sans-serif;font-size:13;font-weight:bold;" transform="matrix(1 0 0 1 1289 1953)">Exporting</text>
  <text style="stroke:none;fill:black;font-family:sans-serif;font-size:13;" transform="matrix(1 0 0 1 1289 1971)">Symbols should be outlined when exporting to ensure the</text>
  <text style="stroke:none;fill:black;font-family:sans-serif;font-size:13;" transform="matrix(1 0 0 1 1289 1989)">design is preserved when submitting to Xcode.</text>
  <text id="template-version" style="stroke:none;fill:black;font-family:sans-serif;font-size:13;text-anchor:end;" transform="matrix(1 0 0 1 3036 1933)">Template v.4.0</text>
  <text style="stroke:none;fill:black;font-family:sans-serif;font-size:13;text-anchor:end;" transform="matrix(1 0 0 1 3036 1951)">Requires Xcode 14 or greater</text>
  <text id="descriptive-name" style="stroke:none;fill:black;font-family:sans-serif;font-size:13;text-anchor:end;" transform="matrix(1 0 0 1 3036 1969)">Generated from lightbulb.led.fill</text>
  <text style="stroke:none;fill:black;font-family:sans-serif;font-size:13;text-anchor:end;" transform="matrix(1 0 0 1 3036 1987)">Typeset at 100 points</text>
  <text style="stroke:none;fill:black;font-family:sans-serif;font-size:13;" transform="matrix(1 0 0 1 263 726)">Small</text>
  <text style="stroke:none;fill:black;font-family:sans-serif;font-size:13;" transform="matrix(1 0 0 1 263 1156)">Medium</text>
  <text style="stroke:none;fill:black;font-family:sans-serif;font-size:13;" transform="matrix(1 0 0 1 263 1586)">Large</text>
 </g>
 <g id="Guides">
  <g id="H-reference" style="fill:#27AAE1;stroke:none;" transform="matrix(1 0 0 1 339 696)">
   <path d="M0.993654 0L3.63775 0L29.3281-67.1323L30.0303-67.1323L30.0303-70.459L28.1226-70.459ZM11.6885-24.4799L46.9815-24.4799L46.2315-26.7285L12.4385-26.7285ZM55.1196 0L57.7637 0L30.6382-70.459L29.4326-70.459L29.4326-67.1323Z"/>
  </g>
  <line id="Baseline-S" style="fill:none;stroke:#27AAE1;opacity:1;stroke-width:0.5;" x1="263" x2="3036" y1="696" y2="696"/>
  <line id="Capline-S" style="fill:none;stroke:#27AAE1;opacity:1;stroke-width:0.5;" x1="263" x2="3036" y1="625.541" y2="625.541"/>
  <g id="H-reference" style="fill:#27AAE1;stroke:none;" transform="matrix(1 0 0 1 339 1126)">
   <path d="M0.993654 0L3.63775 0L29.3281-67.1323L30.0303-67.1323L30.0303-70.459L28.1226-70.459ZM11.6885-24.4799L46.9815-24.4799L46.2315-26.7285L12.4385-26.7285ZM55.1196 0L57.7637 0L30.6382-70.459L29.4326-70.459L29.4326-67.1323Z"/>
  </g>
  <line id="Baseline-M" style="fill:none;stroke:#27AAE1;opacity:1;stroke-width:0.5;" x1="263" x2="3036" y1="1126" y2="1126"/>
  <line id="Capline-M" style="fill:none;stroke:#27AAE1;opacity:1;stroke-width:0.5;" x1="263" x2="3036" y1="1055.54" y2="1055.54"/>
  <g id="H-reference" style="fill:#27AAE1;stroke:none;" transform="matrix(1 0 0 1 339 1556)">
   <path d="M0.993654 0L3.63775 0L29.3281-67.1323L30.0303-67.1323L30.0303-70.459L28.1226-70.459ZM11.6885-24.4799L46.9815-24.4799L46.2315-26.7285L12.4385-26.7285ZM55.1196 0L57.7637 0L30.6382-70.459L29.4326-70.459L29.4326-67.1323Z"/>
  </g>
  <line id="Baseline-L" style="fill:none;stroke:#27AAE1;opacity:1;stroke-width:0.5;" x1="263" x2="3036" y1="1556" y2="1556"/>
  <line id="Capline-L" style="fill:none;stroke:#27AAE1;opacity:1;stroke-width:0.5;" x1="263" x2="3036" y1="1485.54" y2="1485.54"/>
  <line id="left-margin-Regular-M" style="fill:none;stroke:#00AEEF;stroke-width:0.5;opacity:1.0;" x1="1404.71" x2="1404.71" y1="1030.79" y2="1150.12"/>
  <line id="right-margin-Regular-M" style="fill:none;stroke:#00AEEF;stroke-width:0.5;opacity:1.0;" x1="1494.98" x2="1494.98" y1="1030.79" y2="1150.12"/>
 </g>
 <g id="Symbols">
  <g id="Black-L" transform="matrix(1 0 0 1 2871.94 1556)">
   <path d="M40.237 23.7132L82.5974 23.7132C85.5941 23.7132 87.9158 21.1954 87.9158 18.452C87.9158 15.6305 85.5941 13.192 82.5974 13.192L40.237 13.192C37.2599 13.192 34.9174 15.6305 34.9174 18.452C34.9174 21.1954 37.2599 23.7132 40.237 23.7132ZM61.427 43.9529C72.1107 43.9529 79.8872 38.9024 80.623 31.2821L41.9194 31.2821C42.6343 38.9024 50.7225 43.9529 61.427 43.9529ZM32.408-2.87494C32.5677 2.44841 36.3431 5.60221 41.636 5.60221L81.218 5.60221C86.5109 5.60221 90.2876 2.44841 90.4472-2.87494C91.2963-24.4607 96.515-36.618 100.791-47.518L22.123-47.518C26.339-36.618 31.5589-24.4607 32.408-2.87494ZM106.828-73.3741C106.828-97.5908 86.2783-115.46 61.427-115.46C36.5769-115.46 16.084-97.6492 16.084-73.4325C16.084-69.6843 16.4985-66.2921 17.1631-63.1209L105.749-63.1209C106.414-66.2921 106.828-69.6258 106.828-73.3741Z"/>
  </g>
  <g id="Heavy-L" transform="matrix(1 0 0 1 2576.05 1556)">
   <path d="M39.7567 22.2645L81.4602 22.2645C84.2247 22.2645 86.3594 19.9657 86.3594 17.4042C86.3594 14.7736 84.2247 12.5496 81.4602 12.5496L39.7567 12.5496C37.0167 12.5496 34.8518 14.7736 34.8518 17.4042C34.8518 19.9657 37.0167 22.2645 39.7567 22.2645ZM60.6207 41.9896C71.0844 41.9896 78.9198 37.0252 79.6054 29.5042L41.3883 29.5042C42.0437 37.0252 50.1268 41.9896 60.6207 41.9896ZM32.9025-2.05164C33.0577 2.54718 36.2509 5.27969 40.869 5.27969L80.3724 5.27969C84.9905 5.27969 88.1893 2.54718 88.3445-2.05164C89.3728-24.9604 95.0724-37.1421 99.478-48.1882L21.8136-48.1882C26.169-37.1421 31.8742-24.9604 32.9025-2.05164ZM105.202-72.9694C105.202-96.5496 85.1405-114.235 60.6207-114.235C36.1065-114.235 16.084-96.5942 16.084-73.014C16.084-68.9504 16.5713-65.3294 17.3683-61.9486L103.918-61.9486C104.715-65.3294 105.202-68.9057 105.202-72.9694Z"/>
  </g>
  <g id="Bold-L" transform="matrix(1 0 0 1 2280.35 1556)">
   <path d="M39.1873 20.5262L80.0167 20.5262C82.4893 20.5262 84.3935 18.4964 84.3935 16.1653C84.3935 13.7803 82.4893 11.8177 80.0167 11.8177L39.1873 11.8177C36.7394 11.8177 34.7972 13.7803 34.7972 16.1653C34.7972 18.4964 36.7394 20.5262 39.1873 20.5262ZM59.6143 39.6061C69.8239 39.6061 77.669 34.7567 78.293 27.3735L40.7649 27.3735C41.351 34.7567 49.3668 39.6061 59.6143 39.6061ZM33.4128-1.07446C33.5604 2.69246 36.0835 4.93229 39.9386 4.93229L79.2901 4.93229C83.1452 4.93229 85.6815 2.69246 85.8291-1.07446C87.0579-25.6051 93.3194-37.8622 97.8491-49.0851L21.422-49.0851C25.9093-37.8622 32.1841-25.6051 33.4128-1.07446ZM103.174-72.5221C103.174-95.2886 83.7044-112.773 59.6143-112.773C35.5375-112.773 16.084-95.3178 16.084-72.5513C16.084-68.1106 16.6635-64.2203 17.6219-60.5783L101.636-60.5783C102.594-64.2203 103.174-68.0814 103.174-72.5221Z"/>
  </g>
  <g id="Semibold-L" transform="matrix(1 0 0 1 1984.34 1556)">
   <path d="M38.7947 19.3278L79.0215 19.3278C81.293 19.3278 83.0382 17.4834 83.0382 15.3112C83.0382 13.0955 81.293 11.313 79.0215 11.313L38.7947 11.313C36.5482 11.313 34.7595 13.0955 34.7595 15.3112C34.7595 17.4834 36.5482 19.3278 38.7947 19.3278ZM58.9206 37.9629C68.9549 37.9629 76.8066 33.1928 77.3883 25.9047L40.3351 25.9047C40.8734 33.1928 48.8428 37.9629 58.9206 37.9629ZM33.7646-0.400792C33.907 2.79262 35.9681 4.6928 39.2972 4.6928L78.5439 4.6928C81.873 4.6928 83.9526 2.79262 84.095-0.400792C85.4619-26.0495 92.1109-38.3586 96.7262-49.7035L21.152-49.7035C25.7303-38.3586 32.3977-26.0495 33.7646-0.400792ZM101.776-72.2137C101.776-94.4192 82.7144-111.765 58.9206-111.765C35.1452-111.765 16.084-94.4378 16.084-72.2322C16.084-67.5318 16.727-63.4557 17.7967-59.6336L100.063-59.6336C101.133-63.4557 101.776-67.5132 101.776-72.2137Z"/>
  </g>
  <g id="Medium-L" transform="matrix(1 0 0 1 1688.16 1556)">
   <path d="M38.4971 18.4191L78.267 18.4191C80.3858 18.4191 82.0106 16.7154 82.0106 14.6635C82.0106 12.5762 80.3858 10.9304 78.267 10.9304L38.4971 10.9304C36.4032 10.9304 34.731 12.5762 34.731 14.6635C34.731 16.7154 36.4032 18.4191 38.4971 18.4191ZM58.3945 36.717C68.296 36.717 76.1528 32.007 76.7023 24.7909L40.0091 24.7909C40.5113 32.007 48.4455 36.717 58.3945 36.717ZM34.0314 0.11001C34.1698 2.86856 35.8806 4.5112 38.8109 4.5112L77.9782 4.5112C80.9084 4.5112 82.6417 2.86856 82.7801 0.11001C84.2518-26.3865 91.1945-38.735 95.8747-50.1723L20.9473-50.1723C25.5945-38.735 32.5596-26.3865 34.0314 0.11001ZM100.716-71.9798C100.716-93.76 81.9638-111.001 58.3945-111.001C34.8477-111.001 16.084-93.7705 16.084-71.9903C16.084-67.0928 16.7751-62.8759 17.9292-58.9173L98.8703-58.9173C100.024-62.8759 100.716-67.0823 100.716-71.9798Z"/>
  </g>
  <g id="Regular-L" transform="matrix(1 0 0 1 1392.14 1556)">
   <path d="M38.1088 17.2339L77.2828 17.2339C79.2026 17.2339 80.6702 15.7136 80.6702 13.8188C80.6702 11.8989 79.2026 10.4314 77.2828 10.4314L38.1088 10.4314C36.2141 10.4314 34.6937 11.8989 34.6937 13.8188C34.6937 15.7136 36.2141 17.2339 38.1088 17.2339ZM57.7084 35.0918C67.4366 35.0918 75.2999 30.4602 75.8075 23.3382L39.5841 23.3382C40.0389 30.4602 47.9273 35.0918 57.7084 35.0918ZM34.3793 0.776273C34.5125 2.96762 35.7665 4.27434 38.1765 4.27434L77.2402 4.27434C79.6502 4.27434 80.9319 2.96762 81.065 0.776273C82.6734-26.826 89.9993-39.226 94.7641-50.7839L20.6803-50.7839C25.4174-39.226 32.7709-26.826 34.3793 0.776273ZM99.3327-71.6748C99.3327-92.9002 80.9846-110.005 57.7084-110.005C34.4597-110.005 16.084-92.9002 16.084-71.6748C16.084-66.5203 16.838-62.1198 18.1021-57.983L97.3146-57.983C98.5787-62.1198 99.3327-66.5203 99.3327-71.6748Z"/>
  </g>
  <g id="Light-L" transform="matrix(1 0 0 1 1096.17 1556)">
   <path d="M37.8798 16.3942L76.0613 16.3942C77.7522 16.3942 79.067 15.0456 79.067 13.3417C79.067 11.6508 77.7522 10.3359 76.0613 10.3359L37.8798 10.3359C36.1759 10.3359 34.8273 11.6508 34.8273 13.3417C34.8273 15.0456 36.1759 16.3942 37.8798 16.3942ZM56.964 33.7559C66.635 33.7559 74.0975 29.2579 74.567 22.3267L39.3741 22.3267C39.8099 29.2579 47.2593 33.7559 56.964 33.7559ZM34.074 1.17706C34.1881 3.21573 35.3084 4.36977 37.6612 4.36977L76.2668 4.36977C78.6196 4.36977 79.7867 3.21573 79.9008 1.17706C81.5092-27.4367 89.0069-40.1802 93.619-51.8336L20.3558-51.8336C24.9212-40.1802 32.4656-27.4367 34.074 1.17706ZM97.8441-71.713C97.8441-92.2131 79.8204-109.356 56.964-109.356C34.1544-109.356 16.084-92.2131 16.084-71.713C16.084-66.3867 16.9143-61.8907 18.2739-57.5632L95.6542-57.5632C97.0137-61.8907 97.8441-66.3867 97.8441-71.713Z"/>
  </g>
  <g id="Thin-L" transform="matrix(1 0 0 1 800.443 1556)">
   <path d="M37.5769 15.2835L74.4458 15.2835C75.8338 15.2835 76.9467 14.1621 76.9467 12.7106C76.9467 11.3227 75.8338 10.2097 74.4458 10.2097L37.5769 10.2097C36.1254 10.2097 35.004 11.3227 35.004 12.7106C35.004 14.1621 36.1254 15.2835 37.5769 15.2835ZM55.9796 31.9889C65.5749 31.9889 72.5073 27.6676 72.9263 20.9888L39.0965 20.9888C39.507 27.6676 46.3759 31.9889 55.9796 31.9889ZM33.6701 1.70714C33.7589 3.54387 34.7026 4.49598 36.9797 4.49598L74.9795 4.49598C77.2566 4.49598 78.2722 3.54387 78.3611 1.70714C79.9695-28.2445 87.6943-41.4423 92.1045-53.2219L19.9267-53.2219C24.2649-41.4423 32.0617-28.2445 33.6701 1.70714ZM95.8752-71.7635C95.8752-91.3044 78.2807-108.497 55.9796-108.497C33.7505-108.497 16.084-91.3044 16.084-71.7635C16.084-66.21 17.0153-61.5878 18.5011-57.0078L93.4581-57.0078C94.9439-61.5878 95.8752-66.21 95.8752-71.7635Z"/>
  </g>
  <g id="Ultralight-L" transform="matrix(1 0 0 1 504.236 1556)">
   <path d="M37.4218 14.7147L73.6184 14.7147C74.8512 14.7147 75.8607 13.7096 75.8607 12.3874C75.8607 11.1546 74.8512 10.1451 73.6184 10.1451L37.4218 10.1451C36.0996 10.1451 35.0945 11.1546 35.0945 12.3874C35.0945 13.7096 36.0996 14.7147 37.4218 14.7147ZM55.4754 31.0839C65.0319 31.0839 71.6928 26.8531 72.0859 20.3036L38.9542 20.3036C39.3519 26.8531 45.9234 31.0839 55.4754 31.0839ZM33.4632 1.97865C33.5392 3.71194 34.3923 4.56062 36.6306 4.56062L74.3201 4.56062C76.5584 4.56062 77.4965 3.71194 77.5724 1.97865C79.1808-28.6582 87.022-42.0888 91.3287-53.933L19.7069-53.933C23.9287-42.0888 31.8548-28.6582 33.4632 1.97865ZM94.8668-71.7893C94.8668-90.839 77.492-108.058 55.4754-108.058C33.5436-108.058 16.084-90.839 16.084-71.7893C16.084-66.1195 17.067-61.4327 18.6174-56.7234L92.3333-56.7234C93.8838-61.4327 94.8668-66.1195 94.8668-71.7893Z"/>
  </g>
  <g id="Black-M" transform="matrix(1 0 0 1 2885.19 1126)">
   <path d="M31.555 11.5671L64.8036 11.5671C67.2938 11.5671 69.2325 9.45161 69.2325 7.19559C69.2325 4.87669 67.2938 2.82378 64.8036 2.82378L31.555 2.82378C29.0706 2.82378 27.1264 4.87669 27.1264 7.19559C27.1264 9.45161 29.0706 11.5671 31.555 11.5671ZM48.1822 27.6226C56.6407 27.6226 62.5605 23.654 63.1685 17.6908L32.9046 17.6908C33.5071 23.654 39.7182 27.6226 48.1822 27.6226ZM24.6415-10.8163C24.7664-6.09011 28.1737-3.30535 32.8466-3.30535L63.5178-3.30535C68.1907-3.30535 71.5977-6.09011 71.7226-10.8163C72.2264-26.5397 75.8796-35.9841 79.0596-44.3161L17.3616-44.3161C20.4848-35.9841 24.1377-26.5397 24.6415-10.8163ZM83.9606-65.1347C83.9606-84.3451 67.6636-98.3525 48.1822-98.3525C28.7006-98.3525 12.4609-84.4022 12.4609-65.1918C12.4609-62.5357 12.7299-60.0914 13.1439-57.7887L83.2776-57.7887C83.6916-60.0914 83.9606-62.4786 83.9606-65.1347Z"/>
  </g>
  <g id="Heavy-M" transform="matrix(1 0 0 1 2589.2 1126)">
   <path d="M31.1066 10.2284L63.8045 10.2284C66.0889 10.2284 67.8589 8.31109 67.8589 6.21538C67.8589 4.06192 66.0889 2.20463 63.8045 2.20463L31.1066 2.20463C28.8364 2.20463 27.05 4.06192 27.05 6.21538C27.05 8.31109 28.8364 10.2284 31.1066 10.2284ZM47.4626 25.8267C55.7113 25.8267 61.7257 21.9298 62.2882 16.0461L32.4049 16.0461C32.9509 21.9298 39.1976 25.8267 47.4626 25.8267ZM25.1531-10.0485C25.2754-6.01644 28.1258-3.62944 32.1443-3.62944L62.781-3.62944C66.7995-3.62944 69.6522-6.01644 69.7745-10.0485C70.4535-26.9719 74.5609-36.4084 77.8821-44.8744L17.089-44.8744C20.3644-36.4084 24.4741-26.9719 25.1531-10.0485ZM82.508-64.7356C82.508-83.3907 66.6587-97.2145 47.4626-97.2145C28.2689-97.2145 12.4609-83.4343 12.4609-64.7792C12.4609-61.8306 12.794-59.1714 13.3286-56.6815L81.6403-56.6815C82.1749-59.1714 82.508-61.7869 82.508-64.7356Z"/>
  </g>
  <g id="Bold-M" transform="matrix(1 0 0 1 2293.31 1126)">
   <path d="M30.605 8.73088L62.6869 8.73088C64.741 8.73088 66.3223 7.03525 66.3223 5.11888C66.3223 3.15048 64.741 1.51203 62.6869 1.51203L30.605 1.51203C28.5745 1.51203 26.9645 3.15048 26.9645 5.11888C26.9645 7.03525 28.5745 8.73088 30.605 8.73088ZM46.6577 23.8177C54.6717 23.8177 60.7919 20.0011 61.3034 14.2063L31.8458 14.2063C32.3287 20.0011 38.6151 23.8177 46.6577 23.8177ZM25.7253-9.18952C25.8448-5.93404 28.0723-3.99197 31.3586-3.99197L61.9568-3.99197C65.2432-3.99197 67.4758-5.93404 67.5953-9.18952C68.4702-27.4553 73.0857-36.883 76.5649-45.499L16.7842-45.499C20.2297-36.883 24.8503-27.4553 25.7253-9.18952ZM80.883-64.2891C80.883-82.323 65.5346-95.9416 46.6577-95.9416C27.786-95.9416 12.4609-82.3516 12.4609-64.3176C12.4609-61.0418 12.8657-58.1422 13.5353-55.4428L79.8087-55.4428C80.4783-58.1422 80.883-61.0132 80.883-64.2891Z"/>
  </g>
  <g id="Semibold-M" transform="matrix(1 0 0 1 1997.15 1126)">
   <path d="M30.2592 7.69849L61.9164 7.69849C63.8117 7.69849 65.263 6.1557 65.263 4.36296C65.263 2.52214 63.8117 1.03455 61.9164 1.03455L30.2592 1.03455C28.3939 1.03455 26.9055 2.52214 26.9055 4.36296C26.9055 6.1557 28.3939 7.69849 30.2592 7.69849ZM46.1028 22.4327C53.955 22.4327 60.1481 18.6715 60.6244 12.9379L31.4604 12.9379C31.8998 18.6715 38.2136 22.4327 46.1028 22.4327ZM26.1198-8.59736C26.2373-5.87723 28.0353-4.2419 30.817-4.2419L61.3886-4.2419C64.1703-4.2419 65.9754-5.87723 66.0929-8.59736C67.103-27.7886 72.0687-37.2102 75.6569-45.9296L16.574-45.9296C20.1369-37.2102 25.1098-27.7886 26.1198-8.59736ZM79.7628-63.9813C79.7628-81.587 64.7596-95.064 46.1028-95.064C27.4531-95.064 12.4609-81.6051 12.4609-63.9994C12.4609-60.498 12.9152-57.4327 13.6777-54.5889L78.5461-54.5889C79.3086-57.4327 79.7628-60.4799 79.7628-63.9813Z"/>
  </g>
  <g id="Medium-M" transform="matrix(1 0 0 1 1700.87 1126)">
   <path d="M29.997 6.91569L61.3322 6.91569C63.1072 6.91569 64.4598 5.48878 64.4598 3.78979C64.4598 2.0457 63.1072 0.672503 61.3322 0.672503L29.997 0.672503C28.2569 0.672503 26.8609 2.0457 26.8609 3.78979C26.8609 5.48878 28.2569 6.91569 29.997 6.91569ZM45.682 21.3825C53.4116 21.3825 59.6599 17.6633 60.1097 11.9762L31.1682 11.9762C31.5746 17.6633 37.9091 21.3825 45.682 21.3825ZM26.4189-8.14836C26.535-5.83416 28.0073-4.43141 30.4063-4.43141L60.9578-4.43141C63.3568-4.43141 64.8377-5.83416 64.9538-8.14836C66.0662-28.0413 71.2976-37.4583 74.9683-46.2561L16.4146-46.2561C20.0665-37.4583 25.3065-28.0413 26.4189-8.14836ZM78.9134-63.7479C78.9134-81.0289 64.172-94.3986 45.682-94.3986C27.2007-94.3986 12.4609-81.0392 12.4609-63.7582C12.4609-60.0857 12.9527-56.8947 13.7857-53.9414L77.5887-53.9414C78.4217-56.8947 78.9134-60.0754 78.9134-63.7479Z"/>
  </g>
  <g id="Regular-M" transform="matrix(1 0 0 1 1404.71 1126)">
   <path d="M29.655 5.89464L60.5702 5.89464C62.1882 5.89464 63.4122 4.6189 63.4122 3.04218C63.4122 1.42426 62.1882 0.200272 60.5702 0.200272L29.655 0.200272C28.0783 0.200272 26.8026 1.42426 26.8026 3.04218C26.8026 4.6189 28.0783 5.89464 29.655 5.89464ZM45.1332 20.0127C52.7028 20.0127 59.0232 16.3483 59.4382 10.7218L30.7871 10.7218C31.1503 16.3483 37.512 20.0127 45.1332 20.0127ZM26.8091-7.56271C26.9232-5.77797 27.9708-4.67859 29.8706-4.67859L60.3959-4.67859C62.2957-4.67859 63.3539-5.77797 63.4679-7.56271C64.714-28.3709 70.2918-37.7819 74.0703-46.682L16.2068-46.682C19.9747-37.7819 25.563-28.3709 26.8091-7.56271ZM77.8055-63.4435C77.8055-80.3009 63.4056-93.5306 45.1332-93.5306C26.8714-93.5306 12.4609-80.3009 12.4609-63.4435C12.4609-59.5479 13.0016-56.193 13.9266-53.0969L76.3399-53.0969C77.2649-56.193 77.8055-59.5479 77.8055-63.4435Z"/>
  </g>
  <g id="Light-M" transform="matrix(1 0 0 1 1108.67 1126)">
   <path d="M29.4497 5.14176L59.4751 5.14176C60.8877 5.14176 61.9748 4.02001 61.9748 2.61441C61.9748 1.20182 60.8877 0.114717 59.4751 0.114717L29.4497 0.114717C28.0441 0.114717 26.9223 1.20182 26.9223 2.61441C26.9223 4.02001 28.0441 5.14176 29.4497 5.14176ZM44.4659 18.8149C51.9841 18.8149 57.9452 15.2703 58.326 9.81487L30.5988 9.81487C30.945 15.2703 36.9131 18.8149 44.4659 18.8149ZM26.5353-7.20338C26.6323-5.55553 27.5601-4.59304 29.4086-4.59304L59.5232-4.59304C61.3717-4.59304 62.3272-5.55553 62.4241-7.20338C63.6702-28.9185 69.402-38.6375 73.0436-47.6231L15.9159-47.6231C19.5298-38.6375 25.2892-28.9185 26.5353-7.20338ZM76.4709-63.4777C76.4709-79.6849 62.3618-92.9488 44.4659-92.9488C26.5976-92.9488 12.4609-79.6849 12.4609-63.4777C12.4609-59.4281 13.07-55.9877 14.0806-52.7204L74.8512-52.7204C75.8618-55.9877 76.4709-59.4281 76.4709-63.4777Z"/>
  </g>
  <g id="Thin-M" transform="matrix(1 0 0 1 812.839 1126)">
   <path d="M29.1781 4.14601L58.0268 4.14601C59.1678 4.14601 60.0739 3.22794 60.0739 2.04864C60.0739 0.907622 59.1678 0.00156448 58.0268 0.00156448L29.1781 0.00156448C27.9988 0.00156448 27.0808 0.907622 27.0808 2.04864C27.0808 3.22794 27.9988 4.14601 29.1781 4.14601ZM43.5833 17.2308C51.0336 17.2308 56.5195 13.8446 56.855 8.61545L30.3499 8.61545C30.6734 13.8446 36.121 17.2308 43.5833 17.2308ZM26.1732-6.72813C26.2476-5.26133 27.017-4.47988 28.7976-4.47988L58.3691-4.47988C60.1496-4.47988 60.9694-5.26133 61.0437-6.72813C62.2898-29.6427 68.2252-39.769 71.6858-48.8678L15.5312-48.8678C18.9414-39.769 24.9272-29.6427 26.1732-6.72813ZM74.7057-63.5229C74.7057-78.8702 60.9814-92.1794 43.5833-92.1794C26.2356-92.1794 12.4609-78.8702 12.4609-63.5229C12.4609-59.2697 13.1605-55.7161 14.2843-52.2226L72.8824-52.2226C74.0061-55.7161 74.7057-59.2697 74.7057-63.5229Z"/>
  </g>
  <g id="Ultralight-M" transform="matrix(1 0 0 1 516.58 1126)">
   <path d="M29.039 3.636L57.2849 3.636C58.2869 3.636 59.1002 2.82225 59.1002 1.75886C59.1002 0.756936 58.2869-0.0563919 57.2849-0.0563919L29.039-0.0563919C27.9756-0.0563919 27.1619 0.756936 27.1619 1.75886C27.1619 2.82225 27.9756 3.636 29.039 3.636ZM43.1313 16.4194C50.5468 16.4194 55.7892 13.1143 56.1016 8.00111L30.2224 8.00111C30.5343 13.1143 35.7153 16.4194 43.1313 16.4194ZM25.9878-6.48472C26.0505-5.11065 26.7388-4.42193 28.4846-4.42193L57.7779-4.42193C59.5237-4.42193 60.2739-5.11065 60.3366-6.48472C61.5827-30.0136 67.6225-40.3486 70.9903-49.5053L15.3341-49.5053C18.64-40.3486 24.7417-30.0136 25.9878-6.48472ZM73.8016-63.5461C73.8016-78.4529 60.2743-91.7853 43.1313-91.7853C26.0501-91.7853 12.4609-78.4529 12.4609-63.5461C12.4609-59.1886 13.2069-55.577 14.3886-51.9676L71.8739-51.9676C73.0556-55.577 73.8016-59.1886 73.8016-63.5461Z"/>
  </g>
  <g id="Black-S" transform="matrix(1 0 0 1 2895.44 696)">
   <path d="M24.8535 1.80664L51.0254 1.80664C53.0273 1.80664 54.5898 0.0976562 54.5898-1.70898C54.5898-3.56445 53.0273-5.22461 51.0254-5.22461L24.8535-5.22461C22.8516-5.22461 21.2891-3.56445 21.2891-1.70898C21.2891 0.0976562 22.8516 1.80664 24.8535 1.80664ZM37.9395 14.502C44.6289 14.502 49.2188 11.377 49.707 6.68945L25.9277 6.68945C26.416 11.377 31.25 14.502 37.9395 14.502ZM19.1406-16.3086C19.2383-12.4023 22.0703-10.1074 25.9277-10.1074L49.9512-10.1074C53.8086-10.1074 56.6406-12.4023 56.7383-16.3086C57.0801-28.3203 59.8145-35.7422 62.2559-42.2363L13.6719-42.2363C16.0645-35.7422 18.7988-28.3203 19.1406-16.3086ZM66.1621-58.7891C66.1621-73.9746 53.2715-85.0098 37.9395-85.0098C22.6074-85.0098 9.76562-74.0234 9.76562-58.8379C9.76562-56.8359 9.96094-54.9805 10.2539-53.2227L65.6738-53.2227C65.9668-54.9805 66.1621-56.7871 66.1621-58.7891Z"/>
  </g>
  <g id="Heavy-S" transform="matrix(1 0 0 1 2599.26 696)">
   <path d="M24.4963 0.757914L50.3109 0.757914C52.163 0.757914 53.5987-0.801252 53.5987-2.49265C53.5987-4.23287 52.163-5.74321 50.3109-5.74321L24.4963-5.74321C22.6556-5.74321 21.2084-4.23287 21.2084-2.49265C21.2084-0.801252 22.6556 0.757914 24.4963 0.757914ZM37.4093 13.119C43.9259 13.119 48.6425 10.0401 49.0962 5.39871L25.5244 5.39871C25.9666 10.0401 30.8812 13.119 37.4093 13.119ZM19.6131-15.6978C19.7108-12.3678 22.0818-10.3955 25.3861-10.3955L49.4326-10.3955C52.7368-10.3955 55.1079-12.3678 55.2055-15.6978C55.6971-28.6199 58.8003-35.9957 61.38-42.5936L13.476-42.5936C16.0184-35.9957 19.1215-28.6199 19.6131-15.6978ZM65.0903-58.4433C65.0903-73.237 52.5454-84.1109 37.4093-84.1109C22.2732-84.1109 9.76562-73.2743 9.76562-58.4806C9.76562-56.2482 10.007-54.2199 10.3922-52.3237L64.4638-52.3237C64.8489-54.2199 65.0903-56.2109 65.0903-58.4433Z"/>
  </g>
  <g id="Bold-S" transform="matrix(1 0 0 1 2303.15 696)">
   <path d="M24.0967-0.415039L49.5117-0.415039C51.1963-0.415039 52.4902-1.80664 52.4902-3.36914C52.4902-4.98047 51.1963-6.32324 49.5117-6.32324L24.0967-6.32324C22.4365-6.32324 21.1182-4.98047 21.1182-3.36914C21.1182-1.80664 22.4365-0.415039 24.0967-0.415039ZM36.8164 11.5723C43.1396 11.5723 47.998 8.54492 48.4131 3.95508L25.0732 3.95508C25.4639 8.54492 30.4688 11.5723 36.8164 11.5723ZM20.1416-15.0146C20.2393-12.3291 22.0947-10.7178 24.7803-10.7178L48.8525-10.7178C51.5381-10.7178 53.3936-12.3291 53.4912-15.0146C54.1504-28.9551 57.666-36.2793 60.4004-42.9932L13.2568-42.9932C15.9668-36.2793 19.4824-28.9551 20.1416-15.0146ZM63.8916-58.0566C63.8916-72.4121 51.7334-83.1055 36.8164-83.1055C21.8994-83.1055 9.76562-72.4365 9.76562-58.0811C9.76562-55.5908 10.0586-53.3691 10.5469-51.3184L63.1104-51.3184C63.5986-53.3691 63.8916-55.5664 63.8916-58.0566Z"/>
  </g>
  <g id="Semibold-S" transform="matrix(1 0 0 1 2006.85 696)">
   <path d="M23.8212-1.22373L48.9607-1.22373C50.5298-1.22373 51.726-2.4998 51.726-3.97344C51.726-5.4959 50.5298-6.72314 48.9607-6.72314L23.8212-6.72314C22.2854-6.72314 21.056-5.4959 21.056-3.97344C21.056-2.4998 22.2854-1.22373 23.8212-1.22373ZM36.4076 10.5059C42.5976 10.5059 47.5537 7.51406 47.9421 2.95977L24.7622 2.95977C25.1173 7.51406 30.1844 10.5059 36.4076 10.5059ZM20.506-14.5437C20.6036-12.3024 22.1036-10.9399 24.3626-10.9399L48.4526-10.9399C50.7116-10.9399 52.2116-12.3024 52.3093-14.5437C53.084-29.1861 56.884-36.4748 59.725-43.2687L13.1058-43.2687C15.9313-36.4748 19.7312-29.1861 20.506-14.5437ZM63.0651-57.79C63.0651-71.8434 51.1735-82.4123 36.4076-82.4123C21.6417-82.4123 9.76562-71.8589 9.76562-57.8056C9.76562-55.1376 10.0941-52.7826 10.6535-50.6252L62.1772-50.6252C62.7366-52.7826 63.0651-55.1221 63.0651-57.79Z"/>
  </g>
  <g id="Medium-S" transform="matrix(1 0 0 1 1710.45 696)">
   <path d="M23.6123-1.83691L48.543-1.83691C50.0244-1.83691 51.1465-3.02539 51.1465-4.43164C51.1465-5.88672 50.0244-7.02637 48.543-7.02637L23.6123-7.02637C22.1709-7.02637 21.0088-5.88672 21.0088-4.43164C21.0088-3.02539 22.1709-1.83691 23.6123-1.83691ZM36.0977 9.69727C42.1865 9.69727 47.2168 6.73242 47.585 2.20508L24.5264 2.20508C24.8545 6.73242 29.9688 9.69727 36.0977 9.69727ZM20.7822-14.1865C20.8799-12.2822 22.1104-11.1084 24.0459-11.1084L48.1494-11.1084C50.085-11.1084 51.3154-12.2822 51.4131-14.1865C52.2754-29.3613 56.291-36.623 59.2129-43.4775L12.9912-43.4775C15.9043-36.623 19.9199-29.3613 20.7822-14.1865ZM62.4385-57.5879C62.4385-71.4121 50.749-81.8867 36.0977-81.8867C21.4463-81.8867 9.76562-71.4209 9.76562-57.5967C9.76562-54.7939 10.1211-52.3379 10.7344-50.0996L61.4697-50.0996C62.083-52.3379 62.4385-54.7852 62.4385-57.5879Z"/>
  </g>
  <g id="Regular-S" transform="matrix(1 0 0 1 1414.15 696)">
   <path d="M23.3398-2.63672L47.998-2.63672C49.3652-2.63672 50.3906-3.71094 50.3906-5.0293C50.3906-6.39648 49.3652-7.42188 47.998-7.42188L23.3398-7.42188C22.0215-7.42188 20.9473-6.39648 20.9473-5.0293C20.9473-3.71094 22.0215-2.63672 23.3398-2.63672ZM35.6934 8.64258C41.6504 8.64258 46.7773 5.71289 47.1191 1.2207L24.2188 1.2207C24.5117 5.71289 29.6875 8.64258 35.6934 8.64258ZM21.1426-13.7207C21.2402-12.2559 22.1191-11.3281 23.6328-11.3281L47.7539-11.3281C49.2676-11.3281 50.1465-12.2559 50.2441-13.7207C51.2207-29.5898 55.5176-36.8164 58.5449-43.75L12.8418-43.75C15.8691-36.8164 20.166-29.5898 21.1426-13.7207ZM61.6211-57.3242C61.6211-70.8496 50.1953-81.2012 35.6934-81.2012C21.1914-81.2012 9.76562-70.8496 9.76562-57.3242C9.76562-54.3457 10.1562-51.7578 10.8398-49.4141L60.5469-49.4141C61.2305-51.7578 61.6211-54.3457 61.6211-57.3242Z"/>
  </g>
  <g id="Light-S" transform="matrix(1 0 0 1 1118.03 696)">
   <path d="M23.1582-3.30273L47.0293-3.30273C48.2149-3.30273 49.1192-4.24072 49.1192-5.40771C49.1192-6.59326 48.2149-7.49756 47.0293-7.49756L23.1582-7.49756C21.9912-7.49756 21.0532-6.59326 21.0532-5.40771C21.0532-4.24072 21.9912-3.30273 23.1582-3.30273ZM35.103 7.58302C41.0147 7.58302 45.8237 4.75928 46.1353 0.418463L24.0522 0.418463C24.3301 4.75928 29.1577 7.58302 35.103 7.58302ZM20.9004-13.4028C20.9829-12.0591 21.7559-11.2524 23.2241-11.2524L46.9819-11.2524C48.4502-11.2524 49.2383-12.0591 49.3208-13.4028C50.2974-30.0742 54.7305-37.5732 57.6367-44.5825L12.5845-44.5825C15.4756-37.5732 19.9238-30.0742 20.9004-13.4028ZM60.4404-57.3545C60.4404-70.3047 49.272-80.6865 35.103-80.6865C20.9492-80.6865 9.76562-70.3047 9.76562-57.3545C9.76562-54.2397 10.2168-51.5762 10.9761-49.0811L59.23-49.0811C59.9893-51.5762 60.4404-54.2397 60.4404-57.3545Z"/>
  </g>
  <g id="Thin-S" transform="matrix(1 0 0 1 822.1 696)">
   <path d="M22.918-4.18358L45.7481-4.18358C46.6934-4.18358 47.4375-4.9414 47.4375-5.9082C47.4375-6.85351 46.6934-7.59765 45.7481-7.59765L22.918-7.59765C21.9512-7.59765 21.1934-6.85351 21.1934-5.9082C21.1934-4.9414 21.9512-4.18358 22.918-4.18358ZM34.3223 6.18166C40.1738 6.18166 44.5625 3.49806 44.834-0.642563L23.832-0.642563C24.0898 3.49806 28.457 6.18166 34.3223 6.18166ZM20.5801-12.9824C20.6426-11.7988 21.2754-11.1523 22.6836-11.1523L45.961-11.1523C47.3692-11.1523 48.0371-11.7988 48.0996-12.9824C49.0762-30.7148 53.6895-38.5742 56.4356-45.6836L12.2441-45.6836C14.9551-38.5742 19.6035-30.7148 20.5801-12.9824ZM58.8789-57.3945C58.8789-69.584 48.0508-80.0059 34.3223-80.0059C20.6289-80.0059 9.76562-69.584 9.76562-57.3945C9.76562-54.0996 10.2969-51.3359 11.1562-48.6406L57.4883-48.6406C58.3477-51.3359 58.8789-54.0996 58.8789-57.3945Z"/>
  </g>
  <g id="Ultralight-S" transform="matrix(1 0 0 1 525.789 696)">
   <path d="M22.7949-4.63475L45.0918-4.63475C45.9141-4.63475 46.5762-5.30028 46.5762-6.16454C46.5762-6.98681 45.9141-7.64892 45.0918-7.64892L22.7949-7.64892C21.9307-7.64892 21.2651-6.98681 21.2651-6.16454C21.2651-5.30028 21.9307-4.63475 22.7949-4.63475ZM33.9224 5.46389C39.7432 5.46389 43.9165 2.85207 44.1675-1.18602L23.7192-1.18602C23.9668 2.85207 28.0982 5.46389 33.9224 5.46389ZM20.416-12.7671C20.4683-11.6655 21.0293-11.1011 22.4067-11.1011L45.438-11.1011C46.8154-11.1011 47.4219-11.6655 47.4741-12.7671C48.4507-31.043 53.1563-39.0869 55.8203-46.2475L12.0698-46.2475C14.6885-39.0869 19.4395-31.043 20.416-12.7671ZM58.0791-57.415C58.0791-69.2149 47.4253-79.6572 33.9224-79.6572C20.4648-79.6572 9.76562-69.2149 9.76562-57.415C9.76562-54.0278 10.3379-51.2129 11.2485-48.415L56.5962-48.415C57.5069-51.2129 58.0791-54.0278 58.0791-57.415Z"/>
  </g>
 </g>
</svg>
